%TF.GenerationSoftware,Altium Limited,Altium Designer,26.5.0 (11)*%
G04 Layer_Physical_Order=4*
G04 Layer_Color=16711680*
G04 Board_Origin=0|0*
%FSLAX45Y45*%
%MOMM*%
%TF.SameCoordinates,C273414E-9C34-4662-A98D-F7133CFA30B2*%
%TF.FilePolarity,Positive*%
%TF.FileFunction,Copper,L4,Bot,Signal*%
%TF.Part,Single*%
G01*
G75*
%TA.AperFunction,SMDPad,CuDef*%
G04:AMPARAMS|DCode=19|XSize=0.8mm|YSize=1mm|CornerRadius=0.1mm|HoleSize=0mm|Usage=FLASHONLY|Rotation=90.000|XOffset=0mm|YOffset=0mm|HoleType=Round|Shape=RoundedRectangle|*
%AMROUNDEDRECTD19*
21,1,0.80000,0.80000,0,0,90.0*
21,1,0.60000,1.00000,0,0,90.0*
1,1,0.20000,0.40000,0.30000*
1,1,0.20000,0.40000,-0.30000*
1,1,0.20000,-0.40000,-0.30000*
1,1,0.20000,-0.40000,0.30000*
%
%ADD19ROUNDEDRECTD19*%
G04:AMPARAMS|DCode=21|XSize=0.8mm|YSize=1mm|CornerRadius=0.1mm|HoleSize=0mm|Usage=FLASHONLY|Rotation=180.000|XOffset=0mm|YOffset=0mm|HoleType=Round|Shape=RoundedRectangle|*
%AMROUNDEDRECTD21*
21,1,0.80000,0.80000,0,0,180.0*
21,1,0.60000,1.00000,0,0,180.0*
1,1,0.20000,-0.30000,0.40000*
1,1,0.20000,0.30000,0.40000*
1,1,0.20000,0.30000,-0.40000*
1,1,0.20000,-0.30000,-0.40000*
%
%ADD21ROUNDEDRECTD21*%
%TA.AperFunction,Conductor*%
%ADD29C,1.00000*%
%ADD30C,0.50000*%
%ADD32C,0.20000*%
%ADD33C,0.30000*%
%TA.AperFunction,ComponentPad*%
%ADD35C,1.59000*%
%ADD36C,1.55000*%
%ADD37R,1.55000X1.55000*%
%ADD38C,5.00000*%
%ADD39C,1.57000*%
%ADD40R,1.50000X3.50000*%
%ADD41R,3.50000X1.50000*%
%ADD42R,1.50000X1.50000*%
%ADD43R,1.55000X1.55000*%
%ADD44R,1.57000X1.57000*%
%ADD45C,1.50000*%
%ADD46R,1.59000X1.59000*%
%ADD47R,1.57000X1.57000*%
%ADD48R,4.00000X1.50000*%
%ADD49C,0.60000*%
%ADD50O,1.00000X2.20000*%
%ADD51O,1.00000X1.90000*%
%TA.AperFunction,ViaPad*%
%ADD52C,0.55000*%
%TA.AperFunction,SMDPad,CuDef*%
G04:AMPARAMS|DCode=53|XSize=1mm|YSize=1mm|CornerRadius=0.125mm|HoleSize=0mm|Usage=FLASHONLY|Rotation=270.000|XOffset=0mm|YOffset=0mm|HoleType=Round|Shape=RoundedRectangle|*
%AMROUNDEDRECTD53*
21,1,1.00000,0.75000,0,0,270.0*
21,1,0.75000,1.00000,0,0,270.0*
1,1,0.25000,-0.37500,-0.37500*
1,1,0.25000,-0.37500,0.37500*
1,1,0.25000,0.37500,0.37500*
1,1,0.25000,0.37500,-0.37500*
%
%ADD53ROUNDEDRECTD53*%
G04:AMPARAMS|DCode=54|XSize=1mm|YSize=1mm|CornerRadius=0.125mm|HoleSize=0mm|Usage=FLASHONLY|Rotation=180.000|XOffset=0mm|YOffset=0mm|HoleType=Round|Shape=RoundedRectangle|*
%AMROUNDEDRECTD54*
21,1,1.00000,0.75000,0,0,180.0*
21,1,0.75000,1.00000,0,0,180.0*
1,1,0.25000,-0.37500,0.37500*
1,1,0.25000,0.37500,0.37500*
1,1,0.25000,0.37500,-0.37500*
1,1,0.25000,-0.37500,-0.37500*
%
%ADD54ROUNDEDRECTD54*%
G04:AMPARAMS|DCode=55|XSize=0.6mm|YSize=2mm|CornerRadius=0.075mm|HoleSize=0mm|Usage=FLASHONLY|Rotation=180.000|XOffset=0mm|YOffset=0mm|HoleType=Round|Shape=RoundedRectangle|*
%AMROUNDEDRECTD55*
21,1,0.60000,1.85000,0,0,180.0*
21,1,0.45000,2.00000,0,0,180.0*
1,1,0.15000,-0.22500,0.92500*
1,1,0.15000,0.22500,0.92500*
1,1,0.15000,0.22500,-0.92500*
1,1,0.15000,-0.22500,-0.92500*
%
%ADD55ROUNDEDRECTD55*%
G36*
X12157084Y9657513D02*
X12188769Y9644388D01*
X12217284Y9625335D01*
X12241535Y9601084D01*
X12260588Y9572570D01*
X12273713Y9540884D01*
X12280404Y9507247D01*
Y9490100D01*
Y6363196D01*
X11442701D01*
X11432791Y6361225D01*
X11424389Y6355611D01*
X11418775Y6347209D01*
X11416804Y6337299D01*
Y4711701D01*
X11418775Y4701791D01*
X11424389Y4693389D01*
X11432791Y4687775D01*
X11442701Y4685804D01*
X12280404D01*
Y3895700D01*
Y3878553D01*
X12273713Y3844916D01*
X12260588Y3813231D01*
X12241535Y3784716D01*
X12217284Y3760464D01*
X12188770Y3741412D01*
X12157084Y3728287D01*
X12123447Y3721596D01*
X2659352D01*
X2625716Y3728287D01*
X2594031Y3741411D01*
X2565516Y3760464D01*
X2541264Y3784716D01*
X2522212Y3813230D01*
X2509087Y3844916D01*
X2502396Y3878552D01*
Y3895700D01*
Y4927104D01*
X3327399D01*
X3337309Y4929075D01*
X3345711Y4934689D01*
X3351325Y4943091D01*
X3353296Y4953001D01*
Y6083299D01*
X3351325Y6093209D01*
X3345711Y6101611D01*
X3337309Y6107225D01*
X3327399Y6109196D01*
X2502396D01*
Y9490100D01*
Y9507247D01*
X2509087Y9540884D01*
X2522211Y9572569D01*
X2541264Y9601084D01*
X2565516Y9625335D01*
X2594030Y9644388D01*
X2625716Y9657513D01*
X2659353Y9664204D01*
X3721302D01*
X3729400Y9644204D01*
X3723170Y9637974D01*
X3716700Y9622354D01*
Y9605446D01*
X3723170Y9589826D01*
X3735126Y9577870D01*
X3750746Y9571400D01*
X3767654D01*
X3783274Y9577870D01*
X3795230Y9589826D01*
X3801700Y9605446D01*
Y9622354D01*
X3795230Y9637974D01*
X3789000Y9644204D01*
X3797098Y9664204D01*
X4064202D01*
X4072300Y9644204D01*
X4066070Y9637974D01*
X4059600Y9622354D01*
Y9605446D01*
X4066070Y9589826D01*
X4078026Y9577870D01*
X4093646Y9571400D01*
X4110554D01*
X4126174Y9577870D01*
X4138130Y9589826D01*
X4144600Y9605446D01*
Y9622354D01*
X4138130Y9637974D01*
X4131900Y9644204D01*
X4139998Y9664204D01*
X4254702D01*
X4262800Y9644204D01*
X4256570Y9637974D01*
X4250100Y9622354D01*
Y9605446D01*
X4256570Y9589826D01*
X4268526Y9577870D01*
X4284146Y9571400D01*
X4301054D01*
X4316674Y9577870D01*
X4328630Y9589826D01*
X4335100Y9605446D01*
Y9622354D01*
X4328630Y9637974D01*
X4322400Y9644204D01*
X4330498Y9664204D01*
X6658938D01*
X6663115Y9658892D01*
X6667900Y9644204D01*
X6660823Y9634980D01*
X6654273Y9619168D01*
X6652039Y9602200D01*
Y9512200D01*
X6654273Y9495232D01*
X6660823Y9479420D01*
X6671242Y9465842D01*
X6684820Y9455423D01*
X6700632Y9448873D01*
X6717600Y9446639D01*
X6734568Y9448873D01*
X6750380Y9455423D01*
X6763958Y9465842D01*
X6774377Y9479420D01*
X6780927Y9495232D01*
X6783161Y9512200D01*
Y9602200D01*
X6780927Y9619168D01*
X6774377Y9634980D01*
X6767300Y9644204D01*
X6772085Y9658892D01*
X6776262Y9664204D01*
X7523938D01*
X7528115Y9658892D01*
X7532900Y9644204D01*
X7525823Y9634980D01*
X7519273Y9619168D01*
X7517039Y9602200D01*
Y9512200D01*
X7519273Y9495232D01*
X7525823Y9479420D01*
X7536242Y9465842D01*
X7549820Y9455423D01*
X7565632Y9448873D01*
X7582600Y9446639D01*
X7599568Y9448873D01*
X7615380Y9455423D01*
X7628958Y9465842D01*
X7639377Y9479420D01*
X7645927Y9495232D01*
X7648161Y9512200D01*
Y9602200D01*
X7645927Y9619168D01*
X7639377Y9634980D01*
X7632300Y9644204D01*
X7637085Y9658892D01*
X7641262Y9664204D01*
X12123447D01*
X12157084Y9657513D01*
D02*
G37*
%LPC*%
G36*
X3754954Y9478600D02*
X3738046D01*
X3722426Y9472130D01*
X3710470Y9460174D01*
X3704000Y9444554D01*
Y9427646D01*
X3710470Y9412026D01*
X3722426Y9400070D01*
X3738046Y9393600D01*
X3754954D01*
X3770574Y9400070D01*
X3782530Y9412026D01*
X3789000Y9427646D01*
Y9444554D01*
X3782530Y9460174D01*
X3770574Y9472130D01*
X3754954Y9478600D01*
D02*
G37*
G36*
X11358400Y9567700D02*
X11171400D01*
Y9380700D01*
X11358400D01*
Y9567700D01*
D02*
G37*
G36*
X10799600D02*
X10612600D01*
Y9380700D01*
X10799600D01*
Y9567700D01*
D02*
G37*
G36*
X9783600D02*
X9596600D01*
Y9380700D01*
X9783600D01*
Y9567700D01*
D02*
G37*
G36*
X8716800D02*
X8529800D01*
Y9380700D01*
X8716800D01*
Y9567700D01*
D02*
G37*
G36*
X4859854Y9427800D02*
X4842946D01*
X4827326Y9421330D01*
X4815370Y9409374D01*
X4808900Y9393754D01*
Y9376846D01*
X4815370Y9361226D01*
X4827326Y9349270D01*
X4842946Y9342800D01*
X4859854D01*
X4875474Y9349270D01*
X4887430Y9361226D01*
X4893900Y9376846D01*
Y9393754D01*
X4887430Y9409374D01*
X4875474Y9421330D01*
X4859854Y9427800D01*
D02*
G37*
G36*
X5952249Y9488000D02*
X5928552D01*
X5905662Y9481866D01*
X5885139Y9470018D01*
X5868382Y9453261D01*
X5856534Y9432739D01*
X5850400Y9409849D01*
Y9386151D01*
X5856534Y9363261D01*
X5868382Y9342739D01*
X5885139Y9325982D01*
X5905662Y9314134D01*
X5928552Y9308000D01*
X5952249D01*
X5975139Y9314134D01*
X5995661Y9325982D01*
X6012418Y9342739D01*
X6024267Y9363261D01*
X6030400Y9386151D01*
Y9409849D01*
X6024267Y9432739D01*
X6012418Y9453261D01*
X5995661Y9470018D01*
X5975139Y9481866D01*
X5952249Y9488000D01*
D02*
G37*
G36*
X5752249D02*
X5728551D01*
X5705661Y9481866D01*
X5685139Y9470018D01*
X5668382Y9453261D01*
X5656534Y9432739D01*
X5650400Y9409849D01*
Y9386151D01*
X5656534Y9363261D01*
X5668382Y9342739D01*
X5685139Y9325982D01*
X5705661Y9314134D01*
X5728551Y9308000D01*
X5752249D01*
X5775139Y9314134D01*
X5795661Y9325982D01*
X5812418Y9342739D01*
X5824266Y9363261D01*
X5830400Y9386151D01*
Y9409849D01*
X5824266Y9432739D01*
X5812418Y9453261D01*
X5795661Y9470018D01*
X5775139Y9481866D01*
X5752249Y9488000D01*
D02*
G37*
G36*
X5552248D02*
X5528551D01*
X5505661Y9481866D01*
X5485139Y9470018D01*
X5468382Y9453261D01*
X5456533Y9432739D01*
X5450400Y9409849D01*
Y9386151D01*
X5456533Y9363261D01*
X5468382Y9342739D01*
X5485139Y9325982D01*
X5505661Y9314134D01*
X5528551Y9308000D01*
X5552248D01*
X5575138Y9314134D01*
X5595661Y9325982D01*
X5612418Y9342739D01*
X5624266Y9363261D01*
X5630400Y9386151D01*
Y9409849D01*
X5624266Y9432739D01*
X5612418Y9453261D01*
X5595661Y9470018D01*
X5575138Y9481866D01*
X5552248Y9488000D01*
D02*
G37*
G36*
X4745554Y9377000D02*
X4728646D01*
X4713026Y9370530D01*
X4701070Y9358574D01*
X4694600Y9342954D01*
Y9326046D01*
X4701070Y9310426D01*
X4713026Y9298470D01*
X4728646Y9292000D01*
X4745554D01*
X4761174Y9298470D01*
X4773130Y9310426D01*
X4779600Y9326046D01*
Y9342954D01*
X4773130Y9358574D01*
X4761174Y9370530D01*
X4745554Y9377000D01*
D02*
G37*
G36*
X4859854Y9300800D02*
X4842946D01*
X4827326Y9294330D01*
X4815370Y9282374D01*
X4808900Y9266754D01*
Y9249846D01*
X4815370Y9234226D01*
X4827326Y9222270D01*
X4842946Y9215800D01*
X4859854D01*
X4875474Y9222270D01*
X4887430Y9234226D01*
X4893900Y9249846D01*
Y9266754D01*
X4887430Y9282374D01*
X4875474Y9294330D01*
X4859854Y9300800D01*
D02*
G37*
G36*
X3742254Y9288100D02*
X3725346D01*
X3709726Y9281630D01*
X3697770Y9269674D01*
X3691300Y9254054D01*
Y9237146D01*
X3697770Y9221526D01*
X3709726Y9209570D01*
X3725346Y9203100D01*
X3742254D01*
X3757874Y9209570D01*
X3769830Y9221526D01*
X3776300Y9237146D01*
Y9254054D01*
X3769830Y9269674D01*
X3757874Y9281630D01*
X3742254Y9288100D01*
D02*
G37*
G36*
X7449051Y9232200D02*
X7431149D01*
X7414610Y9225349D01*
X7401951Y9212690D01*
X7395100Y9196151D01*
Y9178249D01*
X7401951Y9161710D01*
X7414610Y9149051D01*
X7431149Y9142200D01*
X7449051D01*
X7465590Y9149051D01*
X7478249Y9161710D01*
X7485100Y9178249D01*
Y9196151D01*
X7478249Y9212690D01*
X7465590Y9225349D01*
X7449051Y9232200D01*
D02*
G37*
G36*
X6869051D02*
X6851149D01*
X6834610Y9225349D01*
X6821951Y9212690D01*
X6815100Y9196151D01*
Y9178249D01*
X6821951Y9161710D01*
X6834610Y9149051D01*
X6851149Y9142200D01*
X6869051D01*
X6885590Y9149051D01*
X6898249Y9161710D01*
X6905100Y9178249D01*
Y9196151D01*
X6898249Y9212690D01*
X6885590Y9225349D01*
X6869051Y9232200D01*
D02*
G37*
G36*
X3894654Y9211900D02*
X3877746D01*
X3862126Y9205430D01*
X3850170Y9193474D01*
X3843700Y9177854D01*
Y9160946D01*
X3850170Y9145326D01*
X3862126Y9133370D01*
X3877746Y9126900D01*
X3894654D01*
X3910274Y9133370D01*
X3922230Y9145326D01*
X3928700Y9160946D01*
Y9177854D01*
X3922230Y9193474D01*
X3910274Y9205430D01*
X3894654Y9211900D01*
D02*
G37*
G36*
X10219254Y9097600D02*
X10202346D01*
X10186726Y9091130D01*
X10174770Y9079174D01*
X10168300Y9063554D01*
Y9046646D01*
X10174770Y9031026D01*
X10186726Y9019070D01*
X10202346Y9012600D01*
X10219254D01*
X10234874Y9019070D01*
X10246830Y9031026D01*
X10253300Y9046646D01*
Y9063554D01*
X10246830Y9079174D01*
X10234874Y9091130D01*
X10219254Y9097600D01*
D02*
G37*
G36*
X4796354D02*
X4779446D01*
X4763826Y9091130D01*
X4751870Y9079174D01*
X4745400Y9063554D01*
Y9046646D01*
X4751870Y9031026D01*
X4763826Y9019070D01*
X4779446Y9012600D01*
X4796354D01*
X4811974Y9019070D01*
X4823930Y9031026D01*
X4830400Y9046646D01*
Y9063554D01*
X4823930Y9079174D01*
X4811974Y9091130D01*
X4796354Y9097600D01*
D02*
G37*
G36*
X7582600Y9262761D02*
X7565632Y9260527D01*
X7549820Y9253977D01*
X7536242Y9243559D01*
X7525823Y9229981D01*
X7519273Y9214169D01*
X7517039Y9197200D01*
Y9077200D01*
X7519273Y9060232D01*
X7525823Y9044420D01*
X7536242Y9030842D01*
X7549820Y9020423D01*
X7565632Y9013873D01*
X7582600Y9011639D01*
X7599568Y9013873D01*
X7615381Y9020423D01*
X7628958Y9030842D01*
X7639377Y9044420D01*
X7645927Y9060232D01*
X7648161Y9077200D01*
Y9197200D01*
X7645927Y9214169D01*
X7639377Y9229981D01*
X7628958Y9243559D01*
X7615381Y9253977D01*
X7599568Y9260527D01*
X7582600Y9262761D01*
D02*
G37*
G36*
X6717600D02*
X6700632Y9260527D01*
X6684819Y9253977D01*
X6671242Y9243559D01*
X6660823Y9229981D01*
X6654273Y9214169D01*
X6652039Y9197200D01*
Y9077200D01*
X6654273Y9060232D01*
X6660823Y9044420D01*
X6671242Y9030842D01*
X6684819Y9020423D01*
X6700632Y9013873D01*
X6717600Y9011639D01*
X6734568Y9013873D01*
X6750380Y9020423D01*
X6763958Y9030842D01*
X6774377Y9044420D01*
X6780927Y9060232D01*
X6783161Y9077200D01*
Y9197200D01*
X6780927Y9214169D01*
X6774377Y9229981D01*
X6763958Y9243559D01*
X6750380Y9253977D01*
X6734568Y9260527D01*
X6717600Y9262761D01*
D02*
G37*
G36*
X11565454Y8996000D02*
X11548546D01*
X11532926Y8989530D01*
X11520970Y8977574D01*
X11514500Y8961954D01*
Y8945046D01*
X11520970Y8929426D01*
X11532926Y8917470D01*
X11548546Y8911000D01*
X11565454D01*
X11581074Y8917470D01*
X11593030Y8929426D01*
X11599500Y8945046D01*
Y8961954D01*
X11593030Y8977574D01*
X11581074Y8989530D01*
X11565454Y8996000D01*
D02*
G37*
G36*
X3945454Y8970600D02*
X3928546D01*
X3912926Y8964130D01*
X3900970Y8952174D01*
X3894500Y8936554D01*
Y8919646D01*
X3900970Y8904026D01*
X3912926Y8892070D01*
X3928546Y8885600D01*
X3945454D01*
X3961074Y8892070D01*
X3973030Y8904026D01*
X3979500Y8919646D01*
Y8936554D01*
X3973030Y8952174D01*
X3961074Y8964130D01*
X3945454Y8970600D01*
D02*
G37*
G36*
X10333554Y8957900D02*
X10316646D01*
X10301026Y8951430D01*
X10289070Y8939474D01*
X10282600Y8923854D01*
Y8906946D01*
X10289070Y8891326D01*
X10301026Y8879370D01*
X10316646Y8872900D01*
X10333554D01*
X10349174Y8879370D01*
X10361130Y8891326D01*
X10367600Y8906946D01*
Y8923854D01*
X10361130Y8939474D01*
X10349174Y8951430D01*
X10333554Y8957900D01*
D02*
G37*
G36*
X3767654Y8881700D02*
X3750746D01*
X3735126Y8875230D01*
X3723170Y8863274D01*
X3716700Y8847654D01*
Y8830746D01*
X3723170Y8815126D01*
X3735126Y8803170D01*
X3750746Y8796700D01*
X3767654D01*
X3783274Y8803170D01*
X3795230Y8815126D01*
X3801700Y8830746D01*
Y8847654D01*
X3795230Y8863274D01*
X3783274Y8875230D01*
X3767654Y8881700D01*
D02*
G37*
G36*
Y8729300D02*
X3750746D01*
X3735126Y8722830D01*
X3723170Y8710874D01*
X3716700Y8695254D01*
Y8678346D01*
X3723170Y8662726D01*
X3735126Y8650770D01*
X3750746Y8644300D01*
X3767654D01*
X3783274Y8650770D01*
X3795230Y8662726D01*
X3801700Y8678346D01*
Y8695254D01*
X3795230Y8710874D01*
X3783274Y8722830D01*
X3767654Y8729300D01*
D02*
G37*
G36*
X8479354Y8627700D02*
X8462446D01*
X8446826Y8621230D01*
X8434870Y8609274D01*
X8428400Y8593654D01*
Y8576746D01*
X8434870Y8561126D01*
X8446826Y8549170D01*
X8462446Y8542700D01*
X8479354D01*
X8494974Y8549170D01*
X8506930Y8561126D01*
X8513400Y8576746D01*
Y8593654D01*
X8506930Y8609274D01*
X8494974Y8621230D01*
X8479354Y8627700D01*
D02*
G37*
G36*
X3894654Y8615000D02*
X3877746D01*
X3862126Y8608530D01*
X3850170Y8596574D01*
X3843700Y8580954D01*
Y8564046D01*
X3850170Y8548426D01*
X3862126Y8536470D01*
X3877746Y8530000D01*
X3894654D01*
X3910274Y8536470D01*
X3922230Y8548426D01*
X3928700Y8564046D01*
Y8580954D01*
X3922230Y8596574D01*
X3910274Y8608530D01*
X3894654Y8615000D01*
D02*
G37*
G36*
X5880100Y9133360D02*
X5863132Y9131127D01*
X5847320Y9124577D01*
X5833741Y9114158D01*
X5230644Y8511061D01*
X4762500D01*
X4745532Y8508827D01*
X4729720Y8502277D01*
X4716142Y8491858D01*
X4705723Y8478280D01*
X4699173Y8462468D01*
X4696939Y8445500D01*
X4699173Y8428532D01*
X4705723Y8412720D01*
X4716142Y8399142D01*
X4729720Y8388723D01*
X4745532Y8382173D01*
X4762500Y8379939D01*
X5257800D01*
X5274768Y8382173D01*
X5290580Y8388723D01*
X5304158Y8399142D01*
X5926458Y9021441D01*
X5936877Y9035020D01*
X5943427Y9050832D01*
X5945660Y9067800D01*
X5943427Y9084768D01*
X5936877Y9100580D01*
X5926458Y9114158D01*
X5912880Y9124577D01*
X5897068Y9131127D01*
X5880100Y9133360D01*
D02*
G37*
G36*
X3996254Y8449900D02*
X3979346D01*
X3963726Y8443430D01*
X3951770Y8431474D01*
X3945300Y8415854D01*
Y8398946D01*
X3951770Y8383326D01*
X3963726Y8371370D01*
X3979346Y8364900D01*
X3996254D01*
X4011874Y8371370D01*
X4023830Y8383326D01*
X4030300Y8398946D01*
Y8415854D01*
X4023830Y8431474D01*
X4011874Y8443430D01*
X3996254Y8449900D01*
D02*
G37*
G36*
X3910700Y8502200D02*
X3480700D01*
Y8322200D01*
X3910700D01*
Y8502200D01*
D02*
G37*
G36*
X8873054Y8373700D02*
X8856146D01*
X8840526Y8367230D01*
X8828570Y8355274D01*
X8822100Y8339654D01*
Y8322746D01*
X8828570Y8307126D01*
X8840526Y8295170D01*
X8856146Y8288700D01*
X8873054D01*
X8888674Y8295170D01*
X8900630Y8307126D01*
X8907100Y8322746D01*
Y8339654D01*
X8900630Y8355274D01*
X8888674Y8367230D01*
X8873054Y8373700D01*
D02*
G37*
G36*
X10682254Y8246700D02*
X10665347D01*
X10649726Y8240230D01*
X10637771Y8228274D01*
X10631301Y8212654D01*
Y8195746D01*
X10637771Y8180126D01*
X10649726Y8168170D01*
X10665347Y8161700D01*
X10682254D01*
X10697874Y8168170D01*
X10709830Y8180126D01*
X10716300Y8195746D01*
Y8212654D01*
X10709830Y8228274D01*
X10697874Y8240230D01*
X10682254Y8246700D01*
D02*
G37*
G36*
X10282754Y8195900D02*
X10265846D01*
X10250226Y8189430D01*
X10238270Y8177474D01*
X10231800Y8161854D01*
Y8144946D01*
X10238270Y8129326D01*
X10250226Y8117370D01*
X10265846Y8110900D01*
X10282754D01*
X10298374Y8117370D01*
X10310330Y8129326D01*
X10316800Y8144946D01*
Y8161854D01*
X10310330Y8177474D01*
X10298374Y8189430D01*
X10282754Y8195900D01*
D02*
G37*
G36*
X2730110Y8221500D02*
X2705490D01*
X2681710Y8215128D01*
X2660390Y8202818D01*
X2642982Y8185410D01*
X2630672Y8164090D01*
X2624300Y8140310D01*
Y8115690D01*
X2630672Y8091910D01*
X2642982Y8070590D01*
X2660390Y8053182D01*
X2681710Y8040872D01*
X2705490Y8034500D01*
X2730110D01*
X2753890Y8040872D01*
X2775210Y8053182D01*
X2792618Y8070590D01*
X2804928Y8091910D01*
X2811300Y8115690D01*
Y8140310D01*
X2804928Y8164090D01*
X2792618Y8185410D01*
X2775210Y8202818D01*
X2753890Y8215128D01*
X2730110Y8221500D01*
D02*
G37*
G36*
X7463354Y8004200D02*
X7446446D01*
X7430826Y7997730D01*
X7418870Y7985774D01*
X7412400Y7970154D01*
Y7953246D01*
X7418870Y7937626D01*
X7430826Y7925670D01*
X7446446Y7919200D01*
X7463354D01*
X7478974Y7925670D01*
X7490930Y7937626D01*
X7497400Y7953246D01*
Y7970154D01*
X7490930Y7985774D01*
X7478974Y7997730D01*
X7463354Y8004200D01*
D02*
G37*
G36*
X4453454Y8030800D02*
X4436546D01*
X4420926Y8024330D01*
X4408970Y8012374D01*
X4402500Y7996754D01*
Y7979846D01*
X4408970Y7964226D01*
X4420926Y7952270D01*
X4436546Y7945800D01*
X4453454D01*
X4459710Y7948392D01*
X4478700Y7935765D01*
Y7929046D01*
X4485170Y7913426D01*
X4497126Y7901470D01*
X4512746Y7895000D01*
X4529654D01*
X4545274Y7901470D01*
X4557230Y7913426D01*
X4563700Y7929046D01*
Y7945954D01*
X4557230Y7961574D01*
X4545274Y7973530D01*
X4529654Y7980000D01*
X4512746D01*
X4506490Y7977408D01*
X4487500Y7990035D01*
Y7996754D01*
X4481030Y8012374D01*
X4469074Y8024330D01*
X4453454Y8030800D01*
D02*
G37*
G36*
X12115278Y8334800D02*
X12090922D01*
X12067396Y8328496D01*
X12046304Y8316318D01*
X12029082Y8299096D01*
X12016904Y8278004D01*
X12010600Y8254478D01*
Y8230122D01*
X12016904Y8206596D01*
X12022191Y8197439D01*
X11873542Y8048790D01*
X9636696D01*
X9626941Y8046849D01*
X9618672Y8041324D01*
X9448397Y7871049D01*
X7749803D01*
X7743736Y7891048D01*
X7745424Y7892176D01*
X7750949Y7900446D01*
X7752889Y7910200D01*
Y7990200D01*
X7750949Y7999954D01*
X7745424Y8008224D01*
X7737154Y8013749D01*
X7727400Y8015690D01*
X7667400D01*
X7657646Y8013749D01*
X7649376Y8008224D01*
X7643851Y7999955D01*
X7642868Y7999429D01*
X7628454Y8005400D01*
X7611546D01*
X7595926Y7998930D01*
X7583970Y7986974D01*
X7577500Y7971354D01*
Y7954446D01*
X7583970Y7938826D01*
X7595926Y7926870D01*
X7611546Y7920400D01*
X7628453D01*
X7642990Y7904773D01*
X7643851Y7900446D01*
X7649376Y7892176D01*
X7651064Y7891048D01*
X7644997Y7871049D01*
X7289284D01*
X7286408Y7875354D01*
X7286287Y7878131D01*
X7294780Y7898822D01*
X7301174Y7901470D01*
X7313130Y7913426D01*
X7319600Y7929046D01*
Y7945954D01*
X7313130Y7961574D01*
X7302590Y7972114D01*
Y8017342D01*
X7360458Y8075210D01*
X7409900D01*
X7419654Y8077151D01*
X7427924Y8082676D01*
X7433449Y8090946D01*
X7435389Y8100700D01*
Y8180700D01*
X7433449Y8190454D01*
X7427924Y8198724D01*
X7419654Y8204249D01*
X7409900Y8206190D01*
X7349900D01*
X7340146Y8204249D01*
X7331876Y8198724D01*
X7326351Y8190454D01*
X7324410Y8180700D01*
Y8111258D01*
X7259076Y8045924D01*
X7253551Y8037655D01*
X7251610Y8027900D01*
Y7972114D01*
X7241070Y7961574D01*
X7234600Y7945954D01*
Y7929046D01*
X7241070Y7913426D01*
X7246438Y7908059D01*
X7238153Y7888059D01*
X7230157D01*
X7214536Y7881589D01*
X7202581Y7869633D01*
X7196111Y7854012D01*
Y7837105D01*
X7202581Y7821485D01*
X7214536Y7809529D01*
X7230157Y7803059D01*
X7247064D01*
X7262685Y7809529D01*
X7273225Y7820069D01*
X7291981D01*
X7300266Y7800069D01*
X7294270Y7794074D01*
X7287800Y7778454D01*
Y7761546D01*
X7294270Y7745926D01*
X7306226Y7733970D01*
X7321846Y7727500D01*
X7338754D01*
X7354374Y7733970D01*
X7364914Y7744510D01*
X9749246D01*
X9759001Y7746451D01*
X9767270Y7751976D01*
X9978105Y7962810D01*
X12014167D01*
X12016904Y7952596D01*
X12029082Y7931504D01*
X12046304Y7914282D01*
X12067396Y7902104D01*
X12090922Y7895800D01*
X12115278D01*
X12138804Y7902104D01*
X12159896Y7914282D01*
X12177118Y7931504D01*
X12189296Y7952596D01*
X12195600Y7976122D01*
Y8000478D01*
X12189296Y8024004D01*
X12177118Y8045096D01*
X12159896Y8062318D01*
X12138804Y8074496D01*
X12115278Y8080800D01*
X12090922D01*
X12067396Y8074496D01*
X12046304Y8062318D01*
X12029082Y8045096D01*
X12016904Y8024004D01*
X12014167Y8013790D01*
X11936769D01*
X11929115Y8032267D01*
X12058239Y8161391D01*
X12067396Y8156104D01*
X12090922Y8149800D01*
X12115278D01*
X12138804Y8156104D01*
X12159896Y8168282D01*
X12177118Y8185504D01*
X12189296Y8206596D01*
X12195600Y8230122D01*
Y8254478D01*
X12189296Y8278004D01*
X12177118Y8299096D01*
X12159896Y8316318D01*
X12138804Y8328496D01*
X12115278Y8334800D01*
D02*
G37*
G36*
X6802954Y7802200D02*
X6786046D01*
X6770426Y7795730D01*
X6758470Y7783774D01*
X6752000Y7768154D01*
Y7751246D01*
X6758470Y7735626D01*
X6770426Y7723670D01*
X6786046Y7717200D01*
X6802954D01*
X6818574Y7723670D01*
X6830530Y7735626D01*
X6837000Y7751246D01*
Y7768154D01*
X6830530Y7783774D01*
X6818574Y7795730D01*
X6802954Y7802200D01*
D02*
G37*
G36*
X12115278Y7826800D02*
X12090922D01*
X12067396Y7820496D01*
X12046304Y7808318D01*
X12029082Y7791096D01*
X12016904Y7770004D01*
X12010600Y7746478D01*
Y7722122D01*
X12016904Y7698596D01*
X12029082Y7677504D01*
X12046304Y7660282D01*
X12067396Y7648104D01*
X12090922Y7641800D01*
X12115278D01*
X12138804Y7648104D01*
X12159896Y7660282D01*
X12177118Y7677504D01*
X12189296Y7698596D01*
X12195600Y7722122D01*
Y7746478D01*
X12189296Y7770004D01*
X12177118Y7791096D01*
X12159896Y7808318D01*
X12138804Y7820496D01*
X12115278Y7826800D01*
D02*
G37*
G36*
X8415854Y7624400D02*
X8398946D01*
X8383326Y7617930D01*
X8371370Y7605974D01*
X8364900Y7590354D01*
Y7573446D01*
X8371370Y7557826D01*
X8383326Y7545870D01*
X8398946Y7539400D01*
X8415854D01*
X8431474Y7545870D01*
X8443430Y7557826D01*
X8449900Y7573446D01*
Y7590354D01*
X8443430Y7605974D01*
X8431474Y7617930D01*
X8415854Y7624400D01*
D02*
G37*
G36*
X2730110Y7713500D02*
X2705490D01*
X2681710Y7707128D01*
X2660390Y7694818D01*
X2642982Y7677410D01*
X2630672Y7656090D01*
X2624300Y7632310D01*
Y7607690D01*
X2630672Y7583910D01*
X2642982Y7562590D01*
X2660390Y7545182D01*
X2681710Y7532872D01*
X2705490Y7526500D01*
X2730110D01*
X2753890Y7532872D01*
X2775210Y7545182D01*
X2792618Y7562590D01*
X2804928Y7583910D01*
X2811300Y7607690D01*
Y7632310D01*
X2804928Y7656090D01*
X2792618Y7677410D01*
X2775210Y7694818D01*
X2753890Y7707128D01*
X2730110Y7713500D01*
D02*
G37*
G36*
X12115278Y7458500D02*
X12090922D01*
X12067396Y7452196D01*
X12046304Y7440018D01*
X12029082Y7422796D01*
X12016904Y7401704D01*
X12010600Y7378178D01*
Y7353822D01*
X12016904Y7330296D01*
X12029082Y7309204D01*
X12046304Y7291982D01*
X12067396Y7279804D01*
X12090922Y7273500D01*
X12115278D01*
X12138804Y7279804D01*
X12159896Y7291982D01*
X12177118Y7309204D01*
X12189296Y7330296D01*
X12195600Y7353822D01*
Y7378178D01*
X12189296Y7401704D01*
X12177118Y7422796D01*
X12159896Y7440018D01*
X12138804Y7452196D01*
X12115278Y7458500D01*
D02*
G37*
G36*
X2730110Y7459500D02*
X2705490D01*
X2681710Y7453128D01*
X2660390Y7440818D01*
X2642982Y7423410D01*
X2630672Y7402090D01*
X2624300Y7378310D01*
Y7353690D01*
X2630672Y7329910D01*
X2642982Y7308590D01*
X2660390Y7291182D01*
X2681710Y7278872D01*
X2705490Y7272500D01*
X2730110D01*
X2753890Y7278872D01*
X2775210Y7291182D01*
X2792618Y7308590D01*
X2804928Y7329910D01*
X2811300Y7353690D01*
Y7378310D01*
X2804928Y7402090D01*
X2792618Y7423410D01*
X2775210Y7440818D01*
X2753890Y7453128D01*
X2730110Y7459500D01*
D02*
G37*
G36*
X7566300Y7334841D02*
X7521300D01*
X7512521Y7333095D01*
X7505079Y7328121D01*
X7500106Y7320679D01*
X7498359Y7311900D01*
Y7157520D01*
X7479882Y7149866D01*
X7462241Y7167507D01*
Y7311900D01*
X7460494Y7320679D01*
X7455521Y7328121D01*
X7448079Y7333095D01*
X7439300Y7334841D01*
X7394300D01*
X7385521Y7333095D01*
X7378079Y7328121D01*
X7373106Y7320679D01*
X7371359Y7311900D01*
Y7126900D01*
X7373106Y7118121D01*
X7378079Y7110679D01*
X7385521Y7105706D01*
X7394300Y7103959D01*
X7439300D01*
X7448079Y7105706D01*
X7450397Y7107255D01*
X7692262Y6865390D01*
X7683978Y6845390D01*
X7493000D01*
X7483245Y6843449D01*
X7474976Y6837924D01*
X7426893Y6789841D01*
X7394300D01*
X7385521Y6788095D01*
X7378079Y6783122D01*
X7373106Y6775679D01*
X7371359Y6766900D01*
Y6581900D01*
X7373106Y6573121D01*
X7378079Y6565679D01*
X7385521Y6560706D01*
X7394300Y6558959D01*
X7439300D01*
X7448079Y6560706D01*
X7455521Y6565679D01*
X7460494Y6573121D01*
X7462241Y6581900D01*
Y6753093D01*
X7478944Y6769796D01*
X7483081Y6769179D01*
X7498359Y6760927D01*
Y6581900D01*
X7500106Y6573121D01*
X7505079Y6565679D01*
X7512521Y6560706D01*
X7521300Y6558959D01*
X7541979D01*
X7545776Y6553276D01*
X7587874Y6511178D01*
X7596144Y6505652D01*
X7605898Y6503712D01*
X7844208D01*
X7851862Y6485234D01*
X7833268Y6466641D01*
X7787351D01*
X7777596Y6464700D01*
X7769327Y6459175D01*
X7699160Y6389008D01*
X7693635Y6380739D01*
X7691695Y6370984D01*
Y6292870D01*
X7688258Y6280103D01*
X7676684Y6273618D01*
X7672126Y6271730D01*
X7666812Y6266416D01*
X7665087Y6264691D01*
X7660940Y6266558D01*
X7648593Y6276481D01*
X7648859Y6277821D01*
X7649736Y6282229D01*
Y6307086D01*
X7660276Y6317626D01*
X7666746Y6333246D01*
Y6350153D01*
X7660276Y6365774D01*
X7648320Y6377729D01*
X7632700Y6384200D01*
X7615793D01*
X7600172Y6377729D01*
X7588217Y6365774D01*
X7581747Y6350153D01*
Y6333246D01*
X7588217Y6317626D01*
X7598757Y6307086D01*
Y6292788D01*
X7579136Y6273167D01*
X7567874Y6284430D01*
X7552254Y6290900D01*
X7535346D01*
X7519726Y6284430D01*
X7507770Y6272474D01*
X7501300Y6256854D01*
Y6241948D01*
X7462276Y6202924D01*
X7456751Y6194655D01*
X7454810Y6184900D01*
Y4061858D01*
X7385461Y3992509D01*
X7376304Y3997796D01*
X7352778Y4004100D01*
X7328422D01*
X7304896Y3997796D01*
X7283804Y3985618D01*
X7266582Y3968396D01*
X7254404Y3947304D01*
X7248100Y3923778D01*
Y3899422D01*
X7254404Y3875896D01*
X7266582Y3854804D01*
X7283804Y3837582D01*
X7304896Y3825404D01*
X7328422Y3819100D01*
X7352778D01*
X7376304Y3825404D01*
X7397396Y3837582D01*
X7414618Y3854804D01*
X7426796Y3875896D01*
X7433100Y3899422D01*
Y3923778D01*
X7426796Y3947304D01*
X7421509Y3956461D01*
X7498324Y4033276D01*
X7503849Y4041546D01*
X7505790Y4051300D01*
Y6174342D01*
X7537348Y6205900D01*
X7552253D01*
X7570810Y6191939D01*
Y4000988D01*
X7558896Y3997796D01*
X7537804Y3985618D01*
X7520582Y3968396D01*
X7508404Y3947304D01*
X7502100Y3923778D01*
Y3899422D01*
X7508404Y3875896D01*
X7520582Y3854804D01*
X7537804Y3837582D01*
X7558896Y3825404D01*
X7582422Y3819100D01*
X7606778D01*
X7630304Y3825404D01*
X7651396Y3837582D01*
X7668618Y3854804D01*
X7680796Y3875896D01*
X7687100Y3899422D01*
Y3923778D01*
X7680796Y3947304D01*
X7668618Y3968396D01*
X7651396Y3985618D01*
X7630304Y3997796D01*
X7621790Y4000077D01*
Y6243725D01*
X7637667Y6259602D01*
X7639006Y6260941D01*
X7655843Y6249691D01*
X7655647Y6248856D01*
X7655002Y6247298D01*
X7653700Y6244154D01*
Y6227246D01*
X7660170Y6211626D01*
X7672126Y6199670D01*
X7678714Y6196941D01*
X7679347Y6193759D01*
X7684873Y6185490D01*
X7823110Y6047252D01*
Y4000533D01*
X7812896Y3997796D01*
X7791804Y3985618D01*
X7774582Y3968396D01*
X7762404Y3947304D01*
X7756100Y3923778D01*
Y3899422D01*
X7762404Y3875896D01*
X7774582Y3854804D01*
X7791804Y3837582D01*
X7812896Y3825404D01*
X7836422Y3819100D01*
X7860778D01*
X7884304Y3825404D01*
X7905396Y3837582D01*
X7922618Y3854804D01*
X7934796Y3875896D01*
X7941100Y3899422D01*
Y3923778D01*
X7934796Y3947304D01*
X7922618Y3968396D01*
X7905396Y3985618D01*
X7884304Y3997796D01*
X7874090Y4000533D01*
Y6057811D01*
X7872149Y6067565D01*
X7866624Y6075835D01*
X7747063Y6195395D01*
X7747822Y6197899D01*
X7770441Y6203565D01*
X7783430Y6190576D01*
X7791699Y6185051D01*
X7801454Y6183110D01*
X7852442D01*
X7944876Y6090676D01*
X7953145Y6085151D01*
X7962900Y6083210D01*
X8681595D01*
X8683103Y6082910D01*
X8792097D01*
X8793605Y6083210D01*
X8859402D01*
X8866944Y6084710D01*
X8955000D01*
X8964755Y6086651D01*
X8973024Y6092176D01*
X9035948Y6155100D01*
X9050854D01*
X9066474Y6161570D01*
X9078430Y6173526D01*
X9084900Y6189146D01*
Y6206054D01*
X9078430Y6221674D01*
X9066474Y6233630D01*
X9050854Y6240100D01*
X9033946D01*
X9018326Y6233630D01*
X9006370Y6221674D01*
X8999900Y6206054D01*
Y6191148D01*
X8944442Y6135690D01*
X8860903D01*
X8853361Y6134190D01*
X8792397D01*
X8790889Y6133890D01*
X8684311D01*
X8682803Y6134190D01*
X7973458D01*
X7931543Y6176104D01*
X7936174Y6199671D01*
X7946714Y6210210D01*
X8382000D01*
X8391755Y6212151D01*
X8400024Y6217676D01*
X8548801Y6366454D01*
X8551511Y6366691D01*
X8571228Y6360596D01*
X8574570Y6352526D01*
X8586526Y6340570D01*
X8602146Y6334100D01*
X8619054D01*
X8634674Y6340570D01*
X8645214Y6351110D01*
X8672110D01*
Y6307300D01*
X8674051Y6297546D01*
X8679576Y6289276D01*
X8687846Y6283751D01*
X8697600Y6281810D01*
X8777600D01*
X8787354Y6283751D01*
X8795624Y6289276D01*
X8801149Y6297546D01*
X8803090Y6307300D01*
Y6367300D01*
X8801149Y6377054D01*
X8795624Y6385324D01*
X8787354Y6390849D01*
X8777600Y6392790D01*
X8727558D01*
X8727167Y6392905D01*
X8726831Y6393410D01*
X8737551Y6413410D01*
X8880866D01*
X8893238Y6393410D01*
X8891730Y6390390D01*
X8862700D01*
X8852946Y6388449D01*
X8844676Y6382924D01*
X8839151Y6374654D01*
X8837210Y6364900D01*
Y6304900D01*
X8839151Y6295146D01*
X8844676Y6286876D01*
X8852946Y6281351D01*
X8862700Y6279410D01*
X8942700D01*
X8952454Y6281351D01*
X8960724Y6286876D01*
X8966249Y6295146D01*
X8968190Y6304900D01*
Y6345489D01*
X8979974Y6350370D01*
X8991930Y6362326D01*
X8998400Y6377946D01*
Y6394853D01*
X9012361Y6413410D01*
X11684000D01*
X11693755Y6415351D01*
X11702024Y6420876D01*
X12058239Y6777091D01*
X12067396Y6771804D01*
X12090922Y6765500D01*
X12115278D01*
X12138804Y6771804D01*
X12159896Y6783982D01*
X12177118Y6801204D01*
X12189296Y6822296D01*
X12195600Y6845822D01*
Y6870178D01*
X12189296Y6893704D01*
X12177118Y6914796D01*
X12159896Y6932018D01*
X12138804Y6944196D01*
X12115278Y6950500D01*
X12090922D01*
X12067396Y6944196D01*
X12046304Y6932018D01*
X12029082Y6914796D01*
X12016904Y6893704D01*
X12010600Y6870178D01*
Y6845822D01*
X12016904Y6822296D01*
X12022191Y6813139D01*
X11673442Y6464390D01*
X8585200D01*
X8575445Y6462449D01*
X8567176Y6456924D01*
X8467552Y6357299D01*
X8452640Y6365449D01*
X8449900Y6367932D01*
Y6383854D01*
X8443430Y6399474D01*
X8432495Y6410409D01*
X8431398Y6411969D01*
X8428225Y6434423D01*
X8496112Y6502310D01*
X11518900D01*
X11528655Y6504251D01*
X11536924Y6509776D01*
X12058239Y7031091D01*
X12067396Y7025804D01*
X12090922Y7019500D01*
X12115278D01*
X12138804Y7025804D01*
X12159896Y7037982D01*
X12177118Y7055204D01*
X12189296Y7076296D01*
X12195600Y7099822D01*
Y7124178D01*
X12189296Y7147704D01*
X12177118Y7168796D01*
X12159896Y7186018D01*
X12138804Y7198196D01*
X12115278Y7204500D01*
X12090922D01*
X12067396Y7198196D01*
X12046304Y7186018D01*
X12029082Y7168796D01*
X12016904Y7147704D01*
X12010600Y7124178D01*
Y7099822D01*
X12016904Y7076296D01*
X12022191Y7067139D01*
X11508342Y6553290D01*
X11133688D01*
X11120325Y6573290D01*
X11120524Y6573770D01*
Y6590677D01*
X11114053Y6606298D01*
X11102098Y6618253D01*
X11086477Y6624724D01*
X11069570D01*
X11053950Y6618253D01*
X11041994Y6606298D01*
X11035524Y6590677D01*
Y6589690D01*
X9771961D01*
X9758000Y6608247D01*
Y6625154D01*
X9751530Y6640774D01*
X9739574Y6652730D01*
X9723954Y6659200D01*
X9707046D01*
X9691426Y6652730D01*
X9679470Y6640774D01*
X9673000Y6625154D01*
Y6608247D01*
X9659039Y6589690D01*
X8955064D01*
X8948728Y6596026D01*
X8940459Y6601551D01*
X8930704Y6603492D01*
X8486259D01*
X8476504Y6601551D01*
X8468235Y6596026D01*
X8450899Y6578690D01*
X8173670D01*
X8165362Y6588251D01*
X8168774Y6610071D01*
X8180730Y6622026D01*
X8187200Y6637646D01*
Y6654554D01*
X8180730Y6670174D01*
X8168774Y6682130D01*
X8167886Y6682498D01*
X8163193Y6706089D01*
X8164030Y6706926D01*
X8170500Y6722546D01*
Y6739454D01*
X8164030Y6755074D01*
X8152074Y6767030D01*
X8140986Y6771622D01*
Y6791978D01*
X8152074Y6796570D01*
X8164030Y6808526D01*
X8170500Y6824146D01*
Y6841054D01*
X8164030Y6856674D01*
X8152074Y6868630D01*
X8136454Y6875100D01*
X8119546D01*
X8103926Y6868630D01*
X8091970Y6856674D01*
X8085500Y6841054D01*
Y6826148D01*
X7959242Y6699890D01*
X7716241D01*
Y6766900D01*
X7714747Y6774410D01*
X7714772Y6776135D01*
X7725885Y6794410D01*
X7901542D01*
X7907700Y6788252D01*
Y6773346D01*
X7914170Y6757726D01*
X7926126Y6745770D01*
X7941746Y6739300D01*
X7958654D01*
X7974274Y6745770D01*
X7986230Y6757726D01*
X7992700Y6773346D01*
Y6790254D01*
X7986230Y6805874D01*
X7974274Y6817830D01*
X7963309Y6822371D01*
X7961232Y6825210D01*
X7971125Y6844704D01*
X7971892Y6845210D01*
X7991786D01*
X8002326Y6834670D01*
X8017946Y6828200D01*
X8034854D01*
X8050474Y6834670D01*
X8062430Y6846626D01*
X8068900Y6862246D01*
Y6879154D01*
X8062430Y6894774D01*
X8055793Y6901410D01*
X8063316Y6921410D01*
X8093386D01*
X8103926Y6910870D01*
X8119546Y6904400D01*
X8136454D01*
X8152074Y6910870D01*
X8164030Y6922826D01*
X8170500Y6938446D01*
Y6955354D01*
X8164030Y6970974D01*
X8152074Y6982930D01*
X8136454Y6989400D01*
X8119546D01*
X8103926Y6982930D01*
X8093386Y6972390D01*
X7784358D01*
X7589241Y7167507D01*
Y7311900D01*
X7587494Y7320679D01*
X7582521Y7328121D01*
X7575079Y7333095D01*
X7566300Y7334841D01*
D02*
G37*
G36*
X10600254Y7205300D02*
X10583346D01*
X10567726Y7198830D01*
X10555770Y7186874D01*
X10549300Y7171254D01*
Y7154346D01*
X10555770Y7138726D01*
X10567726Y7126770D01*
X10583346Y7120300D01*
X10600254D01*
X10615874Y7126770D01*
X10627830Y7138726D01*
X10634300Y7154346D01*
Y7171254D01*
X10627830Y7186874D01*
X10615874Y7198830D01*
X10600254Y7205300D01*
D02*
G37*
G36*
X6866454Y7383100D02*
X6849546D01*
X6833926Y7376630D01*
X6821970Y7364674D01*
X6815500Y7349054D01*
Y7332146D01*
X6821970Y7316526D01*
X6833926Y7304570D01*
X6849546Y7298100D01*
X6866454D01*
X6882074Y7304570D01*
X6892614Y7315110D01*
X7193042D01*
X7244276Y7263876D01*
X7244359Y7263820D01*
Y7126900D01*
X7246106Y7118121D01*
X7251079Y7110679D01*
X7258521Y7105706D01*
X7267300Y7103959D01*
X7312300D01*
X7321079Y7105706D01*
X7328521Y7110679D01*
X7333494Y7118121D01*
X7335241Y7126900D01*
Y7311900D01*
X7333494Y7320679D01*
X7328521Y7328121D01*
X7321079Y7333095D01*
X7312300Y7334841D01*
X7267300D01*
X7258521Y7333095D01*
X7251707Y7328541D01*
X7221624Y7358624D01*
X7213355Y7364149D01*
X7203600Y7366090D01*
X6892614D01*
X6882074Y7376630D01*
X6866454Y7383100D01*
D02*
G37*
G36*
X2730110Y7205500D02*
X2705490D01*
X2681710Y7199128D01*
X2660390Y7186818D01*
X2642982Y7169410D01*
X2630672Y7148090D01*
X2624300Y7124310D01*
Y7099690D01*
X2630672Y7075910D01*
X2642982Y7054590D01*
X2660390Y7037182D01*
X2681710Y7024872D01*
X2705490Y7018500D01*
X2730110D01*
X2753890Y7024872D01*
X2775210Y7037182D01*
X2792618Y7054590D01*
X2804928Y7075910D01*
X2811300Y7099690D01*
Y7124310D01*
X2804928Y7148090D01*
X2792618Y7169410D01*
X2775210Y7186818D01*
X2753890Y7199128D01*
X2730110Y7205500D01*
D02*
G37*
G36*
X10600254Y7052900D02*
X10583346D01*
X10567726Y7046430D01*
X10555770Y7034474D01*
X10549300Y7018854D01*
Y7001946D01*
X10555770Y6986326D01*
X10567726Y6974370D01*
X10583346Y6967900D01*
X10600254D01*
X10615874Y6974370D01*
X10627830Y6986326D01*
X10634300Y7001946D01*
Y7018854D01*
X10627830Y7034474D01*
X10615874Y7046430D01*
X10600254Y7052900D01*
D02*
G37*
G36*
X2730110Y6951500D02*
X2705490D01*
X2681710Y6945128D01*
X2660390Y6932818D01*
X2642982Y6915410D01*
X2630672Y6894090D01*
X2624300Y6870310D01*
Y6845690D01*
X2630672Y6821910D01*
X2642982Y6800590D01*
X2660390Y6783182D01*
X2681710Y6770872D01*
X2705490Y6764500D01*
X2730110D01*
X2753890Y6770872D01*
X2775210Y6783182D01*
X2792618Y6800590D01*
X2804928Y6821910D01*
X2811300Y6845690D01*
Y6870310D01*
X2804928Y6894090D01*
X2792618Y6915410D01*
X2775210Y6932818D01*
X2753890Y6945128D01*
X2730110Y6951500D01*
D02*
G37*
G36*
X8517454Y6773500D02*
X8500546D01*
X8484926Y6767030D01*
X8472970Y6755074D01*
X8466500Y6739454D01*
Y6722546D01*
X8472970Y6706926D01*
X8484926Y6694970D01*
X8500546Y6688500D01*
X8517454D01*
X8533074Y6694970D01*
X8545030Y6706926D01*
X8551500Y6722546D01*
Y6739454D01*
X8545030Y6755074D01*
X8533074Y6767030D01*
X8517454Y6773500D01*
D02*
G37*
G36*
X7312300Y6789841D02*
X7267300D01*
X7258521Y6788095D01*
X7251079Y6783122D01*
X7246106Y6775679D01*
X7244359Y6766900D01*
Y6683683D01*
X7164839D01*
Y6693500D01*
X7162704Y6704230D01*
X7156626Y6713326D01*
X7147530Y6719404D01*
X7136800Y6721538D01*
X7061800D01*
X7051070Y6719404D01*
X7041974Y6713326D01*
X7035896Y6704230D01*
X7033761Y6693500D01*
Y6618500D01*
X7035896Y6607770D01*
X7041974Y6598674D01*
X7051070Y6592596D01*
X7052766Y6592258D01*
Y6542539D01*
X7050300D01*
X7039570Y6540404D01*
X7030474Y6534326D01*
X7024396Y6525230D01*
X7022261Y6514500D01*
Y6439500D01*
X7024396Y6428770D01*
X7030474Y6419674D01*
X7039570Y6413596D01*
X7046416Y6412234D01*
Y6376745D01*
X7044100Y6371154D01*
Y6354246D01*
X7050570Y6338626D01*
X7062526Y6326670D01*
X7078146Y6320200D01*
X7095054D01*
X7110674Y6326670D01*
X7122630Y6338626D01*
X7129100Y6354246D01*
Y6371154D01*
X7127983Y6373849D01*
Y6411995D01*
X7136030Y6413596D01*
X7145126Y6419674D01*
X7151204Y6428770D01*
X7153338Y6439500D01*
Y6514500D01*
X7151204Y6525230D01*
X7145126Y6534326D01*
X7136030Y6540404D01*
X7134333Y6540742D01*
Y6590461D01*
X7136800D01*
X7147530Y6592596D01*
X7156626Y6598674D01*
X7158927Y6602116D01*
X7244359D01*
Y6581900D01*
X7246106Y6573121D01*
X7251079Y6565679D01*
X7258521Y6560706D01*
X7267300Y6558959D01*
X7312300D01*
X7321079Y6560706D01*
X7328521Y6565679D01*
X7333494Y6573121D01*
X7335241Y6581900D01*
Y6766900D01*
X7333494Y6775679D01*
X7328521Y6783122D01*
X7321079Y6788095D01*
X7312300Y6789841D01*
D02*
G37*
G36*
X7742754Y7560900D02*
X7725846D01*
X7710226Y7554430D01*
X7698270Y7542474D01*
X7691800Y7526854D01*
Y7509946D01*
X7698270Y7494326D01*
X7710226Y7482370D01*
X7725846Y7475900D01*
X7740752D01*
X8402076Y6814576D01*
X8410346Y6809051D01*
X8420100Y6807110D01*
X9363386D01*
X9373926Y6796570D01*
X9389546Y6790100D01*
X9406454D01*
X9422074Y6796570D01*
X9434030Y6808526D01*
X9440500Y6824146D01*
Y6841054D01*
X9434030Y6856674D01*
X9425693Y6865010D01*
X9430048Y6882025D01*
X9431825Y6885010D01*
X9690542D01*
X9925056Y6650497D01*
X9933325Y6644971D01*
X9943079Y6643031D01*
X10121476D01*
X10132016Y6632491D01*
X10147637Y6626021D01*
X10164544D01*
X10180165Y6632491D01*
X10192120Y6644446D01*
X10198590Y6660067D01*
Y6676974D01*
X10192120Y6692595D01*
X10180165Y6704550D01*
X10164544Y6711020D01*
X10147637D01*
X10144802Y6709846D01*
X10139228Y6714486D01*
X10131484Y6725977D01*
X10136400Y6737846D01*
Y6754754D01*
X10129930Y6770374D01*
X10119390Y6780914D01*
Y6898700D01*
X10117449Y6908455D01*
X10111924Y6916724D01*
X9547724Y7480924D01*
X9539455Y7486449D01*
X9529700Y7488390D01*
X8653632D01*
X8643878Y7486449D01*
X8635609Y7480924D01*
X8564004Y7409319D01*
X8144040D01*
X8133500Y7419859D01*
X8117880Y7426329D01*
X8100972D01*
X8085352Y7419859D01*
X8073396Y7407904D01*
X8066926Y7392283D01*
Y7375376D01*
X8073396Y7359755D01*
X8085352Y7347800D01*
X8100972Y7341330D01*
X8117880D01*
X8133500Y7347800D01*
X8144040Y7358340D01*
X8574562D01*
X8584317Y7360280D01*
X8592586Y7365806D01*
X8664190Y7437410D01*
X9519142D01*
X10068410Y6888142D01*
Y6780914D01*
X10057870Y6770374D01*
X10051400Y6754754D01*
Y6737846D01*
X10057870Y6722226D01*
X10066086Y6714010D01*
X10061447Y6696468D01*
X10059955Y6694010D01*
X9953637D01*
X9719124Y6928524D01*
X9710855Y6934049D01*
X9701100Y6935990D01*
X8610761D01*
X8608918Y6937500D01*
X8599046Y6955990D01*
X8602300Y6963846D01*
Y6978752D01*
X8875158Y7251610D01*
X9210986D01*
X9221526Y7241070D01*
X9237146Y7234600D01*
X9254054D01*
X9269674Y7241070D01*
X9281630Y7253026D01*
X9288100Y7268646D01*
Y7285554D01*
X9281630Y7301174D01*
X9269674Y7313130D01*
X9254054Y7319600D01*
X9237146D01*
X9221526Y7313130D01*
X9210986Y7302590D01*
X8864600D01*
X8854845Y7300649D01*
X8846576Y7295124D01*
X8566252Y7014800D01*
X8551346D01*
X8535726Y7008330D01*
X8523770Y6996374D01*
X8517300Y6980754D01*
Y6963846D01*
X8520554Y6955990D01*
X8510682Y6937500D01*
X8508839Y6935990D01*
X8479758D01*
X8157800Y7257948D01*
Y7272854D01*
X8151330Y7288474D01*
X8139374Y7300430D01*
X8123754Y7306900D01*
X8106846D01*
X8091226Y7300430D01*
X8079270Y7288474D01*
X8072800Y7272854D01*
Y7255946D01*
X8079270Y7240326D01*
X8091226Y7228370D01*
X8106846Y7221900D01*
X8121752D01*
X8451176Y6892476D01*
X8459446Y6886951D01*
X8469200Y6885010D01*
X9348565D01*
X9358053Y6865010D01*
X9352402Y6858090D01*
X8430658D01*
X7776800Y7511948D01*
Y7526854D01*
X7770330Y7542474D01*
X7758374Y7554430D01*
X7742754Y7560900D01*
D02*
G37*
G36*
X2730110Y6697500D02*
X2705490D01*
X2681710Y6691128D01*
X2660390Y6678818D01*
X2642982Y6661410D01*
X2630672Y6640090D01*
X2624300Y6616310D01*
Y6591690D01*
X2630672Y6567910D01*
X2642982Y6546590D01*
X2660390Y6529182D01*
X2681710Y6516872D01*
X2705490Y6510500D01*
X2730110D01*
X2753890Y6516872D01*
X2775210Y6529182D01*
X2792618Y6546590D01*
X2804928Y6567910D01*
X2811300Y6591690D01*
Y6616310D01*
X2804928Y6640090D01*
X2792618Y6661410D01*
X2775210Y6678818D01*
X2753890Y6691128D01*
X2730110Y6697500D01*
D02*
G37*
G36*
X6155254Y6468700D02*
X6138346D01*
X6122726Y6462230D01*
X6110770Y6450274D01*
X6104300Y6434654D01*
Y6417746D01*
X6110770Y6402126D01*
X6122726Y6390170D01*
X6138346Y6383700D01*
X6155254D01*
X6170874Y6390170D01*
X6182830Y6402126D01*
X6189300Y6417746D01*
Y6434654D01*
X6182830Y6450274D01*
X6170874Y6462230D01*
X6155254Y6468700D01*
D02*
G37*
G36*
X2811300Y6443500D02*
X2624300D01*
Y6256500D01*
X2811300D01*
Y6443500D01*
D02*
G37*
G36*
X8644454Y6252800D02*
X8627546D01*
X8611926Y6246330D01*
X8599970Y6234374D01*
X8593500Y6218754D01*
Y6201846D01*
X8599970Y6186226D01*
X8611926Y6174270D01*
X8627546Y6167800D01*
X8644454D01*
X8660074Y6174270D01*
X8672030Y6186226D01*
X8678500Y6201846D01*
Y6218754D01*
X8672030Y6234374D01*
X8660074Y6246330D01*
X8644454Y6252800D01*
D02*
G37*
G36*
X6548954D02*
X6532046D01*
X6516426Y6246330D01*
X6504470Y6234374D01*
X6498000Y6218754D01*
Y6201846D01*
X6504470Y6186226D01*
X6506796Y6183900D01*
X6498512Y6163900D01*
X6493946D01*
X6478326Y6157430D01*
X6466370Y6145474D01*
X6459900Y6129854D01*
Y6112946D01*
X6466370Y6097326D01*
X6478326Y6085370D01*
X6493946Y6078900D01*
X6510854D01*
X6526474Y6085370D01*
X6538430Y6097326D01*
X6544900Y6112946D01*
Y6129854D01*
X6538430Y6145474D01*
X6536104Y6147800D01*
X6544388Y6167800D01*
X6548954D01*
X6564574Y6174270D01*
X6576530Y6186226D01*
X6583000Y6201846D01*
Y6218754D01*
X6576530Y6234374D01*
X6564574Y6246330D01*
X6548954Y6252800D01*
D02*
G37*
G36*
X11277341Y6254000D02*
X11252459D01*
X11228424Y6247560D01*
X11206876Y6235119D01*
X11189281Y6217524D01*
X11176840Y6195976D01*
X11170400Y6171941D01*
Y6147059D01*
X11176840Y6123024D01*
X11189281Y6101476D01*
X11206876Y6083881D01*
X11228424Y6071440D01*
X11252459Y6065000D01*
X11277341D01*
X11301376Y6071440D01*
X11322924Y6083881D01*
X11340519Y6101476D01*
X11352960Y6123024D01*
X11359400Y6147059D01*
Y6171941D01*
X11352960Y6195976D01*
X11340519Y6217524D01*
X11322924Y6235119D01*
X11301376Y6247560D01*
X11277341Y6254000D01*
D02*
G37*
G36*
X7742754Y5998800D02*
X7725846D01*
X7710226Y5992330D01*
X7698270Y5980374D01*
X7691800Y5964754D01*
Y5947846D01*
X7698270Y5932226D01*
X7710226Y5920270D01*
X7725846Y5913800D01*
X7742754D01*
X7758374Y5920270D01*
X7770330Y5932226D01*
X7776800Y5947846D01*
Y5964754D01*
X7770330Y5980374D01*
X7758374Y5992330D01*
X7742754Y5998800D01*
D02*
G37*
G36*
X8591000Y5996390D02*
X8531000D01*
X8521246Y5994449D01*
X8512976Y5988924D01*
X8507451Y5980654D01*
X8505510Y5970900D01*
Y5941551D01*
X8504600Y5939354D01*
Y5922446D01*
X8505510Y5920249D01*
Y5890900D01*
X8507451Y5881146D01*
X8512976Y5872876D01*
X8521246Y5867351D01*
X8531000Y5865410D01*
X8591000D01*
X8600754Y5867351D01*
X8609024Y5872876D01*
X8614549Y5881146D01*
X8616489Y5890900D01*
Y5970900D01*
X8614549Y5980654D01*
X8609024Y5988924D01*
X8600754Y5994449D01*
X8591000Y5996390D01*
D02*
G37*
G36*
X8422300D02*
X8362300D01*
X8352546Y5994449D01*
X8344276Y5988924D01*
X8338751Y5980654D01*
X8336810Y5970900D01*
Y5890900D01*
X8338751Y5881146D01*
X8344276Y5872876D01*
X8352546Y5867351D01*
X8362300Y5865410D01*
X8422300D01*
X8432054Y5867351D01*
X8440324Y5872876D01*
X8445849Y5881146D01*
X8447790Y5890900D01*
Y5970900D01*
X8445849Y5980654D01*
X8440324Y5988924D01*
X8432054Y5994449D01*
X8422300Y5996390D01*
D02*
G37*
G36*
X7373654Y5936100D02*
X7356747D01*
X7341126Y5929629D01*
X7329171Y5917674D01*
X7322700Y5902053D01*
Y5885146D01*
X7329171Y5869526D01*
X7341126Y5857570D01*
X7356747Y5851100D01*
X7373654D01*
X7389274Y5857570D01*
X7401230Y5869526D01*
X7407700Y5885146D01*
Y5902053D01*
X7401230Y5917674D01*
X7389274Y5929629D01*
X7373654Y5936100D01*
D02*
G37*
G36*
X11277341Y6000000D02*
X11252459D01*
X11228424Y5993560D01*
X11206876Y5981119D01*
X11189281Y5963524D01*
X11176840Y5941976D01*
X11170400Y5917941D01*
Y5893059D01*
X11176840Y5869024D01*
X11189281Y5847476D01*
X11206876Y5829881D01*
X11228424Y5817440D01*
X11252459Y5811000D01*
X11277341D01*
X11301376Y5817440D01*
X11322924Y5829881D01*
X11340519Y5847476D01*
X11352960Y5869024D01*
X11359400Y5893059D01*
Y5917941D01*
X11352960Y5941976D01*
X11340519Y5963524D01*
X11322924Y5981119D01*
X11301376Y5993560D01*
X11277341Y6000000D01*
D02*
G37*
G36*
X3598700Y5986300D02*
X3411700D01*
Y5799300D01*
X3598700D01*
Y5986300D01*
D02*
G37*
G36*
X8606354Y5821800D02*
X8589446D01*
X8573826Y5815329D01*
X8561870Y5803374D01*
X8555400Y5787753D01*
Y5770846D01*
X8561870Y5755226D01*
X8573826Y5743270D01*
X8589446Y5736800D01*
X8606354D01*
X8621974Y5743270D01*
X8633930Y5755226D01*
X8640400Y5770846D01*
Y5787753D01*
X8633930Y5803374D01*
X8621974Y5815329D01*
X8606354Y5821800D01*
D02*
G37*
G36*
X8403154Y5808300D02*
X8386246D01*
X8370626Y5801830D01*
X8358670Y5789874D01*
X8352200Y5774254D01*
Y5757346D01*
X8358670Y5741726D01*
X8370626Y5729770D01*
X8386246Y5723300D01*
X8403154D01*
X8418774Y5729770D01*
X8430730Y5741726D01*
X8437200Y5757346D01*
Y5774254D01*
X8430730Y5789874D01*
X8418774Y5801830D01*
X8403154Y5808300D01*
D02*
G37*
G36*
X8225354Y5719400D02*
X8208446D01*
X8192826Y5712930D01*
X8180870Y5700974D01*
X8174400Y5685354D01*
Y5668446D01*
X8180870Y5652826D01*
X8192826Y5640870D01*
X8208446Y5634400D01*
X8225354D01*
X8240974Y5640870D01*
X8252930Y5652826D01*
X8259400Y5668446D01*
Y5685354D01*
X8252930Y5700974D01*
X8240974Y5712930D01*
X8225354Y5719400D01*
D02*
G37*
G36*
X11277341Y5746000D02*
X11252459D01*
X11228424Y5739560D01*
X11206876Y5727119D01*
X11189281Y5709524D01*
X11176840Y5687976D01*
X11170400Y5663941D01*
Y5639059D01*
X11176840Y5615024D01*
X11189281Y5593476D01*
X11206876Y5575881D01*
X11228424Y5563440D01*
X11252459Y5557000D01*
X11277341D01*
X11301376Y5563440D01*
X11322924Y5575881D01*
X11340519Y5593476D01*
X11352960Y5615024D01*
X11359400Y5639059D01*
Y5663941D01*
X11352960Y5687976D01*
X11340519Y5709524D01*
X11322924Y5727119D01*
X11301376Y5739560D01*
X11277341Y5746000D01*
D02*
G37*
G36*
X3517510Y5732300D02*
X3492890D01*
X3469110Y5725928D01*
X3447790Y5713618D01*
X3430382Y5696210D01*
X3418072Y5674890D01*
X3411700Y5651110D01*
Y5626490D01*
X3418072Y5602710D01*
X3430382Y5581390D01*
X3447790Y5563982D01*
X3469110Y5551672D01*
X3492890Y5545300D01*
X3517510D01*
X3541290Y5551672D01*
X3562610Y5563982D01*
X3580018Y5581390D01*
X3592328Y5602710D01*
X3598700Y5626490D01*
Y5651110D01*
X3592328Y5674890D01*
X3580018Y5696210D01*
X3562610Y5713618D01*
X3541290Y5725928D01*
X3517510Y5732300D01*
D02*
G37*
G36*
X11277341Y5492000D02*
X11252459D01*
X11228424Y5485560D01*
X11206876Y5473119D01*
X11189281Y5455524D01*
X11176840Y5433976D01*
X11170400Y5409941D01*
Y5385059D01*
X11176840Y5361024D01*
X11189281Y5339476D01*
X11206876Y5321881D01*
X11228424Y5309440D01*
X11252459Y5303000D01*
X11277341D01*
X11301376Y5309440D01*
X11322924Y5321881D01*
X11340519Y5339476D01*
X11352960Y5361024D01*
X11359400Y5385059D01*
Y5409941D01*
X11352960Y5433976D01*
X11340519Y5455524D01*
X11322924Y5473119D01*
X11301376Y5485560D01*
X11277341Y5492000D01*
D02*
G37*
G36*
X11023341D02*
X10998459D01*
X10974425Y5485560D01*
X10952876Y5473119D01*
X10935282Y5455524D01*
X10922840Y5433976D01*
X10916400Y5409941D01*
Y5385059D01*
X10922840Y5361024D01*
X10935282Y5339476D01*
X10952876Y5321881D01*
X10974425Y5309440D01*
X10998459Y5303000D01*
X11023341D01*
X11047376Y5309440D01*
X11068925Y5321881D01*
X11086519Y5339476D01*
X11098960Y5361024D01*
X11105400Y5385059D01*
Y5409941D01*
X11098960Y5433976D01*
X11086519Y5455524D01*
X11068925Y5473119D01*
X11047376Y5485560D01*
X11023341Y5492000D01*
D02*
G37*
G36*
X3517510Y5478300D02*
X3492890D01*
X3469110Y5471928D01*
X3447790Y5459618D01*
X3430382Y5442210D01*
X3418072Y5420890D01*
X3411700Y5397110D01*
Y5372490D01*
X3418072Y5348710D01*
X3430382Y5327390D01*
X3447790Y5309982D01*
X3469110Y5297672D01*
X3492890Y5291300D01*
X3517510D01*
X3541290Y5297672D01*
X3562610Y5309982D01*
X3580018Y5327390D01*
X3592328Y5348710D01*
X3598700Y5372490D01*
Y5397110D01*
X3592328Y5420890D01*
X3580018Y5442210D01*
X3562610Y5459618D01*
X3541290Y5471928D01*
X3517510Y5478300D01*
D02*
G37*
G36*
X11277341Y5238000D02*
X11252459D01*
X11228424Y5231560D01*
X11206876Y5219119D01*
X11189281Y5201524D01*
X11176840Y5179976D01*
X11170400Y5155941D01*
Y5131059D01*
X11176840Y5107024D01*
X11189281Y5085476D01*
X11206876Y5067881D01*
X11228424Y5055440D01*
X11252459Y5049000D01*
X11277341D01*
X11301376Y5055440D01*
X11322924Y5067881D01*
X11340519Y5085476D01*
X11352960Y5107024D01*
X11359400Y5131059D01*
Y5155941D01*
X11352960Y5179976D01*
X11340519Y5201524D01*
X11322924Y5219119D01*
X11301376Y5231560D01*
X11277341Y5238000D01*
D02*
G37*
G36*
X11023341D02*
X10998459D01*
X10974425Y5231560D01*
X10952876Y5219119D01*
X10935282Y5201524D01*
X10922840Y5179976D01*
X10916400Y5155941D01*
Y5131059D01*
X10922840Y5107024D01*
X10935282Y5085476D01*
X10952876Y5067881D01*
X10974425Y5055440D01*
X10998459Y5049000D01*
X11023341D01*
X11047376Y5055440D01*
X11068925Y5067881D01*
X11086519Y5085476D01*
X11098960Y5107024D01*
X11105400Y5131059D01*
Y5155941D01*
X11098960Y5179976D01*
X11086519Y5201524D01*
X11068925Y5219119D01*
X11047376Y5231560D01*
X11023341Y5238000D01*
D02*
G37*
G36*
X3771510Y5224300D02*
X3746890D01*
X3723110Y5217928D01*
X3701790Y5205618D01*
X3684382Y5188210D01*
X3672072Y5166890D01*
X3665700Y5143110D01*
Y5118490D01*
X3672072Y5094710D01*
X3684382Y5073390D01*
X3701790Y5055982D01*
X3723110Y5043672D01*
X3746890Y5037300D01*
X3771510D01*
X3795290Y5043672D01*
X3816610Y5055982D01*
X3834018Y5073390D01*
X3846328Y5094710D01*
X3852700Y5118490D01*
Y5143110D01*
X3846328Y5166890D01*
X3834018Y5188210D01*
X3816610Y5205618D01*
X3795290Y5217928D01*
X3771510Y5224300D01*
D02*
G37*
G36*
X6841054Y6786200D02*
X6824146D01*
X6808526Y6779730D01*
X6796570Y6767774D01*
X6790100Y6752154D01*
Y6737248D01*
X5083082Y5030230D01*
X3717329Y5015785D01*
X3656262D01*
X3586841Y5085207D01*
X3592328Y5094710D01*
X3598700Y5118490D01*
Y5143110D01*
X3592328Y5166890D01*
X3580018Y5188210D01*
X3562610Y5205618D01*
X3541290Y5217928D01*
X3517510Y5224300D01*
X3492890D01*
X3469110Y5217928D01*
X3447790Y5205618D01*
X3430382Y5188210D01*
X3418072Y5166890D01*
X3411700Y5143110D01*
Y5118490D01*
X3418072Y5094710D01*
X3430382Y5073390D01*
X3447790Y5055982D01*
X3469110Y5043672D01*
X3492890Y5037300D01*
X3517510D01*
X3541290Y5043672D01*
X3550793Y5049159D01*
X3627680Y4972272D01*
X3635950Y4966746D01*
X3645704Y4964806D01*
X3717454D01*
X3717589Y4964833D01*
X3717724Y4964808D01*
X5094021Y4979364D01*
X5098754Y4980357D01*
X5103506Y4981302D01*
X5103620Y4981379D01*
X5103755Y4981407D01*
X5107747Y4984136D01*
X5111776Y4986828D01*
X6826148Y6701200D01*
X6841054D01*
X6856674Y6707670D01*
X6868630Y6719626D01*
X6875100Y6735246D01*
Y6752154D01*
X6868630Y6767774D01*
X6856674Y6779730D01*
X6841054Y6786200D01*
D02*
G37*
G36*
X11359400Y4984000D02*
X11170400D01*
Y4795000D01*
X11359400D01*
Y4984000D01*
D02*
G37*
G36*
X11023341D02*
X10998459D01*
X10974425Y4977560D01*
X10952876Y4965119D01*
X10935282Y4947524D01*
X10922840Y4925976D01*
X10916400Y4901941D01*
Y4877059D01*
X10922840Y4853024D01*
X10935282Y4831476D01*
X10952876Y4813881D01*
X10974425Y4801440D01*
X10998459Y4795000D01*
X11023341D01*
X11047376Y4801440D01*
X11068925Y4813881D01*
X11086519Y4831476D01*
X11098960Y4853024D01*
X11105400Y4877059D01*
Y4901941D01*
X11098960Y4925976D01*
X11086519Y4947524D01*
X11068925Y4965119D01*
X11047376Y4977560D01*
X11023341Y4984000D01*
D02*
G37*
G36*
X7098778Y4004100D02*
X7074422D01*
X7050896Y3997796D01*
X7029804Y3985618D01*
X7012582Y3968396D01*
X7000404Y3947304D01*
X6994100Y3923778D01*
Y3899422D01*
X7000404Y3875896D01*
X7012582Y3854804D01*
X7029804Y3837582D01*
X7050896Y3825404D01*
X7074422Y3819100D01*
X7098778D01*
X7122304Y3825404D01*
X7143396Y3837582D01*
X7160618Y3854804D01*
X7172796Y3875896D01*
X7179100Y3899422D01*
Y3923778D01*
X7172796Y3947304D01*
X7160618Y3968396D01*
X7143396Y3985618D01*
X7122304Y3997796D01*
X7098778Y4004100D01*
D02*
G37*
G36*
X6853754Y5630500D02*
X6836846D01*
X6821226Y5624030D01*
X6809270Y5612074D01*
X6802800Y5596454D01*
Y5588758D01*
X6277571Y5063529D01*
X6270941Y5053605D01*
X6268612Y5041900D01*
X6268612Y5041899D01*
Y3999167D01*
X6263496Y3997796D01*
X6242404Y3985618D01*
X6225182Y3968396D01*
X6213004Y3947304D01*
X6206700Y3923778D01*
Y3899422D01*
X6213004Y3875896D01*
X6225182Y3854804D01*
X6242404Y3837582D01*
X6263496Y3825404D01*
X6287022Y3819100D01*
X6311378D01*
X6334904Y3825404D01*
X6355996Y3837582D01*
X6373218Y3854804D01*
X6385396Y3875896D01*
X6391700Y3899422D01*
Y3923778D01*
X6385396Y3947304D01*
X6373218Y3968396D01*
X6355996Y3985618D01*
X6334904Y3997796D01*
X6329788Y3999167D01*
Y5029230D01*
X6846058Y5545500D01*
X6853754D01*
X6869374Y5551970D01*
X6881330Y5563926D01*
X6887800Y5579546D01*
Y5596454D01*
X6881330Y5612074D01*
X6869374Y5624030D01*
X6853754Y5630500D01*
D02*
G37*
G36*
X6815654Y5782900D02*
X6798746D01*
X6783126Y5776430D01*
X6771170Y5764474D01*
X6764700Y5748854D01*
Y5741158D01*
X6023571Y5000029D01*
X6016941Y4990105D01*
X6014612Y4978400D01*
X6014612Y4978399D01*
Y3999167D01*
X6009496Y3997796D01*
X5988404Y3985618D01*
X5971182Y3968396D01*
X5959004Y3947304D01*
X5952700Y3923778D01*
Y3899422D01*
X5959004Y3875896D01*
X5971182Y3854804D01*
X5988404Y3837582D01*
X6009496Y3825404D01*
X6033022Y3819100D01*
X6057378D01*
X6080904Y3825404D01*
X6101996Y3837582D01*
X6119218Y3854804D01*
X6131396Y3875896D01*
X6137700Y3899422D01*
Y3923778D01*
X6131396Y3947304D01*
X6119218Y3968396D01*
X6101996Y3985618D01*
X6080904Y3997796D01*
X6075788Y3999167D01*
Y4965730D01*
X6807958Y5697900D01*
X6815654D01*
X6831274Y5704370D01*
X6843230Y5716326D01*
X6849700Y5731946D01*
Y5748854D01*
X6843230Y5764474D01*
X6831274Y5776430D01*
X6815654Y5782900D01*
D02*
G37*
G36*
X6739454Y5897200D02*
X6722546D01*
X6706926Y5890730D01*
X6694970Y5878774D01*
X6688500Y5863154D01*
Y5855458D01*
X5769571Y4936529D01*
X5762941Y4926605D01*
X5760612Y4914900D01*
X5760612Y4914899D01*
Y3999167D01*
X5755496Y3997796D01*
X5734404Y3985618D01*
X5717182Y3968396D01*
X5705004Y3947304D01*
X5698700Y3923778D01*
Y3899422D01*
X5705004Y3875896D01*
X5717182Y3854804D01*
X5734404Y3837582D01*
X5755496Y3825404D01*
X5779022Y3819100D01*
X5803378D01*
X5826904Y3825404D01*
X5847996Y3837582D01*
X5865218Y3854804D01*
X5877396Y3875896D01*
X5883700Y3899422D01*
Y3923778D01*
X5877396Y3947304D01*
X5865218Y3968396D01*
X5847996Y3985618D01*
X5826904Y3997796D01*
X5821788Y3999167D01*
Y4902230D01*
X6731758Y5812200D01*
X6739454D01*
X6755074Y5818670D01*
X6767030Y5830626D01*
X6773500Y5846246D01*
Y5863154D01*
X6767030Y5878774D01*
X6755074Y5890730D01*
X6739454Y5897200D01*
D02*
G37*
G36*
X5549378Y4004100D02*
X5525022D01*
X5501496Y3997796D01*
X5480404Y3985618D01*
X5463182Y3968396D01*
X5451004Y3947304D01*
X5444700Y3923778D01*
Y3899422D01*
X5451004Y3875896D01*
X5463182Y3854804D01*
X5480404Y3837582D01*
X5501496Y3825404D01*
X5525022Y3819100D01*
X5549378D01*
X5572904Y3825404D01*
X5593996Y3837582D01*
X5611218Y3854804D01*
X5623396Y3875896D01*
X5629700Y3899422D01*
Y3923778D01*
X5623396Y3947304D01*
X5611218Y3968396D01*
X5593996Y3985618D01*
X5572904Y3997796D01*
X5549378Y4004100D01*
D02*
G37*
%LPD*%
G36*
X9922531Y7979333D02*
X9838024Y7894825D01*
X9815569Y7897998D01*
X9814009Y7899095D01*
X9803074Y7910030D01*
X9787454Y7916500D01*
X9770546D01*
X9754926Y7910030D01*
X9742970Y7898074D01*
X9736500Y7882454D01*
Y7865546D01*
X9742970Y7849926D01*
X9754926Y7837971D01*
X9758175Y7814976D01*
X9738688Y7795490D01*
X7380086D01*
X7377026Y7800069D01*
X7387716Y7820069D01*
X9458955D01*
X9468709Y7822010D01*
X9476979Y7827535D01*
X9647254Y7997810D01*
X9914877D01*
X9922531Y7979333D01*
D02*
G37*
G36*
X7755776Y6928876D02*
X7764046Y6923351D01*
X7773800Y6921410D01*
X7970737D01*
X7981216Y6901410D01*
X7977602Y6896190D01*
X7733558D01*
X7544266Y7085482D01*
X7551920Y7103959D01*
X7566300D01*
X7575079Y7105706D01*
X7577397Y7107255D01*
X7755776Y6928876D01*
D02*
G37*
G36*
X8070853Y6711121D02*
X8071056Y6710103D01*
X7915644Y6554691D01*
X7726234D01*
X7715016Y6572303D01*
X7714807Y6574691D01*
X7716241Y6581900D01*
Y6648911D01*
X7969800D01*
X7979555Y6650851D01*
X7987824Y6656376D01*
X8049152Y6717704D01*
X8070853Y6711121D01*
D02*
G37*
G36*
X8085500Y6544924D02*
Y6544746D01*
X8091970Y6529126D01*
X8103926Y6517170D01*
X8119546Y6510700D01*
X8136454D01*
X8152074Y6517170D01*
X8162614Y6527710D01*
X8423285D01*
X8430939Y6509233D01*
X8291801Y6370095D01*
X7928151D01*
X7917611Y6380635D01*
X7901991Y6387105D01*
X7885084D01*
X7869463Y6380635D01*
X7857508Y6368680D01*
X7851037Y6353059D01*
Y6336152D01*
X7857508Y6320531D01*
X7869463Y6308576D01*
X7885084Y6302106D01*
X7901991D01*
X7917611Y6308576D01*
X7928151Y6319116D01*
X8302359D01*
X8312114Y6321056D01*
X8320383Y6326582D01*
X8348376Y6354575D01*
X8371371Y6351326D01*
X8383326Y6339370D01*
X8398946Y6332900D01*
X8414868D01*
X8417351Y6330160D01*
X8425501Y6315248D01*
X8371442Y6261190D01*
X7946714D01*
X7936174Y6271730D01*
X7920554Y6278200D01*
X7903646D01*
X7888026Y6271730D01*
X7885700Y6269404D01*
X7879775Y6269448D01*
X7863317Y6275305D01*
X7859230Y6285174D01*
X7847274Y6297130D01*
X7831654Y6303600D01*
X7814746D01*
X7799126Y6297130D01*
X7787171Y6285174D01*
X7764176Y6281925D01*
X7742674Y6303428D01*
Y6360426D01*
X7797909Y6415661D01*
X7843826D01*
X7853581Y6417602D01*
X7861850Y6423127D01*
X7907435Y6468712D01*
X7970446D01*
X7980201Y6470653D01*
X7988470Y6476178D01*
X8065500Y6553208D01*
X8085500Y6544924D01*
D02*
G37*
D19*
X8902700Y6184900D02*
D03*
Y6334900D02*
D03*
X8737600Y6337300D02*
D03*
Y6187300D02*
D03*
D21*
X7379900Y8140700D02*
D03*
X8242300Y5930900D02*
D03*
X8392300D02*
D03*
X8711000D02*
D03*
X8561000D02*
D03*
X7529900Y8140700D02*
D03*
X7847400Y7950200D02*
D03*
X7697400D02*
D03*
D29*
X4864100Y8445500D02*
X5257800D01*
X4762500D02*
X4864100D01*
X5257800D02*
X5880100Y9067800D01*
D30*
X7095050Y6642500D02*
X7106600D01*
X7093550Y6486250D02*
X7102800Y6477000D01*
X7087200Y6461400D02*
X7102800Y6477000D01*
X7289800Y6647900D02*
Y6674400D01*
X7112000Y6642900D02*
X7284800D01*
X7289800Y6647900D01*
X7093550Y6641000D02*
X7095050Y6642500D01*
X7093550Y6486250D02*
Y6641000D01*
X7087200Y6363300D02*
Y6461400D01*
X7086600Y6362700D02*
X7087200Y6363300D01*
D32*
X7670800Y6674400D02*
X7969800D01*
X8128000Y6832600D01*
X7734300Y7518400D02*
X8420100Y6832600D01*
X8864600Y7277100D02*
X9245600D01*
X8559800Y6972300D02*
X8864600Y7277100D01*
X7493000Y6819900D02*
X7912100D01*
X7950200Y6781800D01*
X8128000Y6553200D02*
X8461457D01*
X7896877Y6494202D02*
X7970446D01*
X7926202Y6529202D02*
X8128000Y6731000D01*
X7605898Y6529202D02*
X7926202D01*
X7620000Y7962900D02*
X7684700D01*
X7697400Y7950200D01*
X8392300Y5930900D02*
X8394700D01*
X8547100D02*
X8561000D01*
X8955900Y6386400D02*
X8957600Y6388100D01*
X8955900Y6378100D02*
Y6386400D01*
X8912700Y6334900D02*
X8955900Y6378100D01*
X8902700Y6334900D02*
X8912700D01*
X8610600Y6376600D02*
X8688300D01*
X8727600Y6337300D01*
X8737600D01*
X8585200Y6438900D02*
X11684000D01*
X8382000Y6235700D02*
X8585200Y6438900D01*
X11684000D02*
X12103100Y6858000D01*
X7912100Y6235700D02*
X8382000D01*
X8859402Y6108700D02*
X8860903Y6110200D01*
X8792397Y6108700D02*
X8859402D01*
X8955000Y6110200D02*
X9042215Y6197415D01*
X8860903Y6110200D02*
X8955000D01*
X8792097Y6108400D02*
X8792397Y6108700D01*
X8485554Y6527800D02*
X11518900D01*
X12103100Y7112000D01*
X7893537Y6344606D02*
X8302359D01*
X8485554Y6527800D01*
X7379900Y8130700D02*
Y8140700D01*
X7277100Y8027900D02*
X7379900Y8130700D01*
X7277100Y7937500D02*
Y8027900D01*
X8930704Y6578002D02*
X8944506Y6564200D01*
X11060000D01*
X11078024Y6582224D01*
X8461457Y6553200D02*
X8486259Y6578002D01*
X8930704D01*
X8683103Y6108400D02*
X8792097D01*
X7962900Y6108700D02*
X8682803D01*
X8683103Y6108400D01*
X7863000Y6208600D02*
X7962900Y6108700D01*
X8138003Y6639403D02*
X8144700Y6646100D01*
X8115648Y6639403D02*
X8138003D01*
X7970446Y6494202D02*
X8115648Y6639403D01*
X7787351Y6441151D02*
X7843826D01*
X7896877Y6494202D01*
X7801454Y6208600D02*
X7863000D01*
X7717184Y6292870D02*
Y6370984D01*
X7787351Y6441151D01*
X7717184Y6292870D02*
X7801454Y6208600D01*
X8420100Y6832600D02*
X9398000D01*
X7416800Y6744400D02*
X7436800Y6764400D01*
X7437500D01*
X7493000Y6819900D01*
X7416800Y6674400D02*
Y6744400D01*
X7563800Y6571300D02*
X7605898Y6529202D01*
X7543800Y6674400D02*
X7563800Y6654400D01*
Y6571300D02*
Y6654400D01*
X3505200Y5130800D02*
X3645704Y4990296D01*
X3717454D01*
X5093752Y5004852D02*
X6832600Y6743700D01*
X3717454Y4990296D02*
X5093752Y5004852D01*
X7696200Y6235700D02*
X7702897Y6229003D01*
Y6203514D02*
Y6229003D01*
Y6203514D02*
X7848600Y6057811D01*
Y3911600D02*
Y6057811D01*
X7596300Y6254283D02*
X7624246Y6282229D01*
Y6341700D01*
X7596300Y3913300D02*
Y6254283D01*
X7238611Y7845559D02*
X9458955D01*
X9636696Y8023300D01*
X11884100D01*
X12103100Y8242300D01*
X9967546Y7988300D02*
X12103100D01*
X9749246Y7770000D02*
X9967546Y7988300D01*
X7330300Y7770000D02*
X9749246D01*
X7480300Y6184900D02*
X7543800Y6248400D01*
X7480300Y4051300D02*
Y6184900D01*
X7340600Y3911600D02*
X7480300Y4051300D01*
X7594600Y3911600D02*
X7596300Y3913300D01*
X10093900Y6746300D02*
Y6898700D01*
X9529700Y7462900D02*
X10093900Y6898700D01*
X8653632Y7462900D02*
X9529700D01*
X8574562Y7383830D02*
X8653632Y7462900D01*
X8109426Y7383830D02*
X8574562D01*
X8115300Y7264400D02*
X8469200Y6910500D01*
X9701100D01*
X9943079Y6668521D01*
X10156090D01*
X7269800Y7281900D02*
X7289800Y7261900D01*
X7203600Y7340600D02*
X7262300Y7281900D01*
X6858000Y7340600D02*
X7203600D01*
X7289800Y7219400D02*
Y7261900D01*
X7262300Y7281900D02*
X7269800D01*
X7416800Y7176900D02*
X7723000Y6870700D01*
X8026400D01*
X7416800Y7176900D02*
Y7219400D01*
X7773800Y6946900D02*
X8128000D01*
X7543800Y7176900D02*
X7773800Y6946900D01*
X7543800Y7176900D02*
Y7219400D01*
D33*
X5791200Y3911600D02*
Y4914900D01*
X6731000Y5854700D01*
X6299200Y3911600D02*
Y5041900D01*
X6845300Y5588000D01*
X6045200Y4978400D02*
X6807200Y5740400D01*
X6045200Y3911600D02*
Y4978400D01*
D35*
X11264900Y5651500D02*
D03*
X11010900Y4889500D02*
D03*
X11264900Y5397500D02*
D03*
X11010900D02*
D03*
Y5905500D02*
D03*
Y6159500D02*
D03*
Y5651500D02*
D03*
X11264900Y5143500D02*
D03*
Y5905500D02*
D03*
Y6159500D02*
D03*
X11010900Y5143500D02*
D03*
D36*
X12103100Y7112000D02*
D03*
X5791200Y3911600D02*
D03*
X12103100Y7734300D02*
D03*
Y7366000D02*
D03*
X7086600Y3911600D02*
D03*
X5537200D02*
D03*
X6299200D02*
D03*
X6045200D02*
D03*
X12103100Y6858000D02*
D03*
Y8242300D02*
D03*
Y7988300D02*
D03*
X7848600Y3911600D02*
D03*
X7594600D02*
D03*
X7340600D02*
D03*
D37*
X6553200D02*
D03*
X8102600D02*
D03*
D38*
X2794000Y4000500D02*
D03*
Y8953500D02*
D03*
X11988800Y4000500D02*
D03*
Y8953500D02*
D03*
D39*
X2717800Y7874000D02*
D03*
X8877300Y9474200D02*
D03*
X9436100D02*
D03*
X10452100D02*
D03*
X11518900D02*
D03*
X3759200Y5892800D02*
D03*
Y5638800D02*
D03*
Y5384800D02*
D03*
Y5130800D02*
D03*
X3505200D02*
D03*
Y5384800D02*
D03*
Y5638800D02*
D03*
X2717800Y8128000D02*
D03*
Y7620000D02*
D03*
Y7366000D02*
D03*
Y6858000D02*
D03*
Y6604000D02*
D03*
Y7112000D02*
D03*
D40*
X3225700Y8712200D02*
D03*
D41*
X3695700Y9012200D02*
D03*
D42*
X5340400Y9398000D02*
D03*
D43*
X12103100Y8496300D02*
D03*
Y6604000D02*
D03*
D44*
X3505200Y5892800D02*
D03*
X2717800Y6350000D02*
D03*
D45*
X5940400Y9398000D02*
D03*
X5540400D02*
D03*
X5740400D02*
D03*
D46*
X11264900Y4889500D02*
D03*
D47*
Y9474200D02*
D03*
X9690100D02*
D03*
X10706100D02*
D03*
X8623300D02*
D03*
D48*
X3695700Y8412200D02*
D03*
D49*
X6860100Y9187200D02*
D03*
X7440100D02*
D03*
D50*
X7582600Y9137200D02*
D03*
X6717600D02*
D03*
D51*
Y9557200D02*
D03*
X7582600D02*
D03*
D52*
X3378200Y7747000D02*
D03*
X4787900Y9055100D02*
D03*
X7620000Y7962900D02*
D03*
X7277100Y8826500D02*
D03*
X7480300Y8775700D02*
D03*
X8394700Y5930900D02*
D03*
X8547100D02*
D03*
X8955900Y6386400D02*
D03*
X9042400Y6197600D02*
D03*
X8610600Y6376600D02*
D03*
X7893537Y6344606D02*
D03*
X7277100Y7937500D02*
D03*
X6731000Y5854700D02*
D03*
X11078024Y6582224D02*
D03*
X8128000Y6553200D02*
D03*
X8144700Y6646100D02*
D03*
X7000000Y9500000D02*
D03*
X11000000D02*
D03*
X3500000D02*
D03*
X6500000D02*
D03*
X10000000D02*
D03*
X12000000D02*
D03*
X8000000D02*
D03*
X7275028Y5023172D02*
D03*
X11250000Y7500000D02*
D03*
X10250000Y5250000D02*
D03*
X9750000D02*
D03*
Y5750000D02*
D03*
X9250000Y5500000D02*
D03*
X2750000Y8500000D02*
D03*
X3746500Y7747000D02*
D03*
X3000000Y7750000D02*
D03*
X4000000D02*
D03*
Y8000000D02*
D03*
X6000000Y8750000D02*
D03*
X6500000Y8250000D02*
D03*
X6250000Y8000000D02*
D03*
X5500000D02*
D03*
X4750000D02*
D03*
Y7500000D02*
D03*
X5500000D02*
D03*
X6250000D02*
D03*
X4750000Y5250000D02*
D03*
X6000000Y6000000D02*
D03*
Y5500000D02*
D03*
X5250000D02*
D03*
X4750000Y5750000D02*
D03*
X4250000Y5500000D02*
D03*
Y6000000D02*
D03*
X10159200Y7759700D02*
D03*
X10441300Y7708900D02*
D03*
X8648700Y8318500D02*
D03*
X3175000Y3784600D02*
D03*
X4178300D02*
D03*
X5308600D02*
D03*
X8636000D02*
D03*
X9956800Y3771900D02*
D03*
X11341100Y3759200D02*
D03*
X12204700Y4584700D02*
D03*
X12217400Y9347200D02*
D03*
X9146319Y8026766D02*
D03*
X9222421Y8000832D02*
D03*
X9469240Y7582735D02*
D03*
X9412389Y7639587D02*
D03*
X9355537Y7696438D02*
D03*
X8991496Y7998419D02*
D03*
X8934645Y8055270D02*
D03*
X11269110Y8218425D02*
D03*
X11155407Y8104722D02*
D03*
X10928002Y7877317D02*
D03*
X10814299Y7763614D02*
D03*
X10700597Y7649912D02*
D03*
X10586894Y7536209D02*
D03*
X10677794Y7810279D02*
D03*
X10791496Y7923981D02*
D03*
X10962050Y8094535D02*
D03*
X11075753Y8208238D02*
D03*
X11189455Y8321940D02*
D03*
X11237581Y8474671D02*
D03*
X10601573Y8262916D02*
D03*
X10430469Y8251861D02*
D03*
X10401159Y8326728D02*
D03*
X10393746Y8406786D02*
D03*
X9722934Y8448205D02*
D03*
X9717309Y8368002D02*
D03*
X9653260Y8319403D02*
D03*
X9699822Y7610659D02*
D03*
X9523740Y7991144D02*
D03*
Y8312743D02*
D03*
X8280400Y9613900D02*
D03*
X10185400D02*
D03*
Y9474200D02*
D03*
Y9321800D02*
D03*
X7906072Y5628480D02*
D03*
Y5467680D02*
D03*
Y5306881D02*
D03*
Y5146081D02*
D03*
X7704873Y4901479D02*
D03*
X7385466Y4882828D02*
D03*
X7224667D02*
D03*
X7063867D02*
D03*
X6903067D02*
D03*
X6742267D02*
D03*
X6581467D02*
D03*
X6420668D02*
D03*
X6179468D02*
D03*
X5857868D02*
D03*
X5616669D02*
D03*
X5455869D02*
D03*
X5295069D02*
D03*
X5134269D02*
D03*
X4973470D02*
D03*
X4812670D02*
D03*
X4651870D02*
D03*
X4491070D02*
D03*
X4330270D02*
D03*
X4169471D02*
D03*
X4008671D02*
D03*
X3861477Y4929284D02*
D03*
X3705095Y5251737D02*
D03*
X3855272Y5221993D02*
D03*
X3915846Y5073392D02*
D03*
X5345431Y5023172D02*
D03*
X5506231D02*
D03*
X5667031D02*
D03*
X5988630D02*
D03*
X6229830D02*
D03*
X6471029D02*
D03*
X6631829D02*
D03*
X6792629D02*
D03*
X6953429D02*
D03*
X7114229D02*
D03*
X7667324Y5061463D02*
D03*
X7765728Y5187144D02*
D03*
Y5347944D02*
D03*
Y5508743D02*
D03*
Y5669543D02*
D03*
Y5830343D02*
D03*
X6845300Y5588000D02*
D03*
X6807200Y5740400D02*
D03*
X10591800Y7162800D02*
D03*
Y7010400D02*
D03*
X8509000Y6731000D02*
D03*
X8407400Y7581900D02*
D03*
X7454900Y7961700D02*
D03*
X9715500Y6616700D02*
D03*
X8407400Y6375400D02*
D03*
X8636000Y6210300D02*
D03*
X8597900Y5779300D02*
D03*
X7823200Y6261100D02*
D03*
X8394700Y5765800D02*
D03*
X8216900Y5676900D02*
D03*
X7734300Y5956300D02*
D03*
X6794500Y7759700D02*
D03*
X5880100Y9067800D02*
D03*
X4864100Y8445500D02*
D03*
X4762500D02*
D03*
X4445000Y7988300D02*
D03*
X4521200Y7937500D02*
D03*
X7086600Y6362700D02*
D03*
X7365200Y5893600D02*
D03*
X6146800Y6426200D02*
D03*
X6540500Y6210300D02*
D03*
X6502400Y6121400D02*
D03*
X7696200Y6235700D02*
D03*
X7624246Y6341700D02*
D03*
X7912100Y6235700D02*
D03*
X7238611Y7845559D02*
D03*
X7330300Y7770000D02*
D03*
X7543800Y6248400D02*
D03*
X6832600Y6743700D02*
D03*
X8128000Y6832600D02*
D03*
X9398000D02*
D03*
X8115300Y7264400D02*
D03*
X8109426Y7383830D02*
D03*
X10156090Y6668521D02*
D03*
X10093900Y6746300D02*
D03*
X9245600Y7277100D02*
D03*
X8470900Y8585200D02*
D03*
X9779000Y7874000D02*
D03*
X4737100Y9334500D02*
D03*
X4851400Y9258300D02*
D03*
Y9385300D02*
D03*
X7734300Y7518400D02*
D03*
X8559800Y6972300D02*
D03*
X6858000Y7340600D02*
D03*
X7950200Y6781800D02*
D03*
X8026400Y6870700D02*
D03*
X8128000Y6946900D02*
D03*
Y6731000D02*
D03*
X10210800Y9055100D02*
D03*
X10673800Y8204200D02*
D03*
X10325100Y8915400D02*
D03*
X11557000Y8953500D02*
D03*
X8864600Y8331200D02*
D03*
X10274300Y8153400D02*
D03*
X3987800Y8407400D02*
D03*
X3886200Y8572500D02*
D03*
X3759200Y8686800D02*
D03*
Y8839200D02*
D03*
X3937000Y8928100D02*
D03*
X3886200Y9169400D02*
D03*
X3733800Y9245600D02*
D03*
X3746500Y9436100D02*
D03*
X3759200Y9613900D02*
D03*
X4102100D02*
D03*
X4292600D02*
D03*
D53*
X7099300Y6819900D02*
D03*
Y6656000D02*
D03*
D54*
X7239000Y6477000D02*
D03*
X7087800D02*
D03*
D55*
X7670800Y7219400D02*
D03*
X7289800Y6674400D02*
D03*
X7416800D02*
D03*
X7289800Y7219400D02*
D03*
X7416800D02*
D03*
X7543800Y6674400D02*
D03*
X7670800D02*
D03*
X7543800Y7219400D02*
D03*
%TF.MD5,d7998d9e6f74245ecb589bc35f0412f8*%
M02*
