%TF.GenerationSoftware,Altium Limited,Altium Designer,26.5.0 (11)*%
G04 Layer_Color=8388736*
G04 Board_Origin=0|0*
%FSLAX45Y45*%
%MOMM*%
%TF.SameCoordinates,C273414E-9C34-4662-A98D-F7133CFA30B2*%
%TF.FilePolarity,Negative*%
%TF.FileFunction,Soldermask,Top*%
%TF.Part,Single*%
G01*
G75*
%TA.AperFunction,SMDPad,CuDef*%
G04:AMPARAMS|DCode=10|XSize=1.55748mm|YSize=0.74248mm|CornerRadius=0.37124mm|HoleSize=0mm|Usage=FLASHONLY|Rotation=90.000|XOffset=0mm|YOffset=0mm|HoleType=Round|Shape=RoundedRectangle|*
%AMROUNDEDRECTD10*
21,1,1.55748,0.00000,0,0,90.0*
21,1,0.81501,0.74248,0,0,90.0*
1,1,0.74247,0.00000,0.40750*
1,1,0.74247,0.00000,-0.40750*
1,1,0.74247,0.00000,-0.40750*
1,1,0.74247,0.00000,0.40750*
%
%ADD10ROUNDEDRECTD10*%
%ADD11R,0.74248X1.55748*%
%ADD13R,0.30000X0.99000*%
%ADD14R,1.20000X0.30000*%
%ADD15R,0.30000X1.20000*%
G04:AMPARAMS|DCode=20|XSize=1.1mm|YSize=0.6mm|CornerRadius=0.051mm|HoleSize=0mm|Usage=FLASHONLY|Rotation=270.000|XOffset=0mm|YOffset=0mm|HoleType=Round|Shape=RoundedRectangle|*
%AMROUNDEDRECTD20*
21,1,1.10000,0.49800,0,0,270.0*
21,1,0.99800,0.60000,0,0,270.0*
1,1,0.10200,-0.24900,-0.49900*
1,1,0.10200,-0.24900,0.49900*
1,1,0.10200,0.24900,0.49900*
1,1,0.10200,0.24900,-0.49900*
%
%ADD20ROUNDEDRECTD20*%
%ADD27R,0.80000X1.20000*%
%TA.AperFunction,ComponentPad*%
%ADD35C,1.59000*%
%ADD39C,1.57000*%
%ADD44R,1.57000X1.57000*%
%ADD46R,1.59000X1.59000*%
%ADD47R,1.57000X1.57000*%
%TA.AperFunction,SMDPad,CuDef*%
G04:AMPARAMS|DCode=61|XSize=0.8032mm|YSize=0.9032mm|CornerRadius=0.1766mm|HoleSize=0mm|Usage=FLASHONLY|Rotation=270.000|XOffset=0mm|YOffset=0mm|HoleType=Round|Shape=RoundedRectangle|*
%AMROUNDEDRECTD61*
21,1,0.80320,0.55000,0,0,270.0*
21,1,0.45000,0.90320,0,0,270.0*
1,1,0.35320,-0.27500,-0.22500*
1,1,0.35320,-0.27500,0.22500*
1,1,0.35320,0.27500,0.22500*
1,1,0.35320,0.27500,-0.22500*
%
%ADD61ROUNDEDRECTD61*%
G04:AMPARAMS|DCode=62|XSize=0.71mm|YSize=1.76mm|CornerRadius=0.18625mm|HoleSize=0mm|Usage=FLASHONLY|Rotation=180.000|XOffset=0mm|YOffset=0mm|HoleType=Round|Shape=RoundedRectangle|*
%AMROUNDEDRECTD62*
21,1,0.71000,1.38750,0,0,180.0*
21,1,0.33750,1.76000,0,0,180.0*
1,1,0.37250,-0.16875,0.69375*
1,1,0.37250,0.16875,0.69375*
1,1,0.37250,0.16875,-0.69375*
1,1,0.37250,-0.16875,-0.69375*
%
%ADD62ROUNDEDRECTD62*%
G04:AMPARAMS|DCode=63|XSize=0.8032mm|YSize=0.9032mm|CornerRadius=0.1766mm|HoleSize=0mm|Usage=FLASHONLY|Rotation=0.000|XOffset=0mm|YOffset=0mm|HoleType=Round|Shape=RoundedRectangle|*
%AMROUNDEDRECTD63*
21,1,0.80320,0.55000,0,0,0.0*
21,1,0.45000,0.90320,0,0,0.0*
1,1,0.35320,0.22500,-0.27500*
1,1,0.35320,-0.22500,-0.27500*
1,1,0.35320,-0.22500,0.27500*
1,1,0.35320,0.22500,0.27500*
%
%ADD63ROUNDEDRECTD63*%
G04:AMPARAMS|DCode=64|XSize=1.5032mm|YSize=1.3032mm|CornerRadius=0.1566mm|HoleSize=0mm|Usage=FLASHONLY|Rotation=270.000|XOffset=0mm|YOffset=0mm|HoleType=Round|Shape=RoundedRectangle|*
%AMROUNDEDRECTD64*
21,1,1.50320,0.99000,0,0,270.0*
21,1,1.19000,1.30320,0,0,270.0*
1,1,0.31320,-0.49500,-0.59500*
1,1,0.31320,-0.49500,0.59500*
1,1,0.31320,0.49500,0.59500*
1,1,0.31320,0.49500,-0.59500*
%
%ADD64ROUNDEDRECTD64*%
G04:AMPARAMS|DCode=65|XSize=1.0032mm|YSize=1.2032mm|CornerRadius=0.2016mm|HoleSize=0mm|Usage=FLASHONLY|Rotation=90.000|XOffset=0mm|YOffset=0mm|HoleType=Round|Shape=RoundedRectangle|*
%AMROUNDEDRECTD65*
21,1,1.00320,0.80000,0,0,90.0*
21,1,0.60000,1.20320,0,0,90.0*
1,1,0.40320,0.40000,0.30000*
1,1,0.40320,0.40000,-0.30000*
1,1,0.40320,-0.40000,-0.30000*
1,1,0.40320,-0.40000,0.30000*
%
%ADD65ROUNDEDRECTD65*%
G04:AMPARAMS|DCode=66|XSize=1.0032mm|YSize=1.2032mm|CornerRadius=0.2016mm|HoleSize=0mm|Usage=FLASHONLY|Rotation=180.000|XOffset=0mm|YOffset=0mm|HoleType=Round|Shape=RoundedRectangle|*
%AMROUNDEDRECTD66*
21,1,1.00320,0.80000,0,0,180.0*
21,1,0.60000,1.20320,0,0,180.0*
1,1,0.40320,-0.30000,0.40000*
1,1,0.40320,0.30000,0.40000*
1,1,0.40320,0.30000,-0.40000*
1,1,0.40320,-0.30000,-0.40000*
%
%ADD66ROUNDEDRECTD66*%
%TA.AperFunction,ConnectorPad*%
%ADD67R,0.74000X1.64000*%
%TA.AperFunction,SMDPad,CuDef*%
G04:AMPARAMS|DCode=68|XSize=1.6032mm|YSize=1.9032mm|CornerRadius=0.2766mm|HoleSize=0mm|Usage=FLASHONLY|Rotation=270.000|XOffset=0mm|YOffset=0mm|HoleType=Round|Shape=RoundedRectangle|*
%AMROUNDEDRECTD68*
21,1,1.60320,1.35000,0,0,270.0*
21,1,1.05000,1.90320,0,0,270.0*
1,1,0.55320,-0.67500,-0.52500*
1,1,0.55320,-0.67500,0.52500*
1,1,0.55320,0.67500,0.52500*
1,1,0.55320,0.67500,-0.52500*
%
%ADD68ROUNDEDRECTD68*%
G04:AMPARAMS|DCode=69|XSize=0.7532mm|YSize=1.4532mm|CornerRadius=0.1511mm|HoleSize=0mm|Usage=FLASHONLY|Rotation=0.000|XOffset=0mm|YOffset=0mm|HoleType=Round|Shape=RoundedRectangle|*
%AMROUNDEDRECTD69*
21,1,0.75320,1.15100,0,0,0.0*
21,1,0.45100,1.45320,0,0,0.0*
1,1,0.30220,0.22550,-0.57550*
1,1,0.30220,-0.22550,-0.57550*
1,1,0.30220,-0.22550,0.57550*
1,1,0.30220,0.22550,0.57550*
%
%ADD69ROUNDEDRECTD69*%
G04:AMPARAMS|DCode=70|XSize=0.7532mm|YSize=1.4532mm|CornerRadius=0.1511mm|HoleSize=0mm|Usage=FLASHONLY|Rotation=270.000|XOffset=0mm|YOffset=0mm|HoleType=Round|Shape=RoundedRectangle|*
%AMROUNDEDRECTD70*
21,1,0.75320,1.15100,0,0,270.0*
21,1,0.45100,1.45320,0,0,270.0*
1,1,0.30220,-0.57550,-0.22550*
1,1,0.30220,-0.57550,0.22550*
1,1,0.30220,0.57550,0.22550*
1,1,0.30220,0.57550,-0.22550*
%
%ADD70ROUNDEDRECTD70*%
G04:AMPARAMS|DCode=71|XSize=1.6032mm|YSize=1.9032mm|CornerRadius=0.2766mm|HoleSize=0mm|Usage=FLASHONLY|Rotation=180.000|XOffset=0mm|YOffset=0mm|HoleType=Round|Shape=RoundedRectangle|*
%AMROUNDEDRECTD71*
21,1,1.60320,1.35000,0,0,180.0*
21,1,1.05000,1.90320,0,0,180.0*
1,1,0.55320,-0.52500,0.67500*
1,1,0.55320,0.52500,0.67500*
1,1,0.55320,0.52500,-0.67500*
1,1,0.55320,-0.52500,-0.67500*
%
%ADD71ROUNDEDRECTD71*%
%TA.AperFunction,ConnectorPad*%
%ADD72R,0.88000X1.78000*%
%ADD73R,0.58000X1.78000*%
%TA.AperFunction,ComponentPad*%
%ADD74C,1.75320*%
%ADD75R,1.75320X1.75320*%
%ADD76C,5.20320*%
%ADD77R,1.70320X3.70320*%
%ADD78R,3.70320X1.70320*%
%ADD79R,1.70320X1.70320*%
%ADD80R,1.75320X1.75320*%
%ADD81C,1.70320*%
%ADD82R,4.20320X1.70320*%
%ADD83C,1.20000*%
%ADD84O,1.10000X2.30000*%
%ADD85O,1.10000X2.00000*%
%TA.AperFunction,ViaPad*%
%ADD86C,0.75320*%
D10*
X2997200Y8564737D02*
D03*
D11*
Y8224663D02*
D03*
D13*
X7099900Y8715700D02*
D03*
X7149900D02*
D03*
X7199900D02*
D03*
Y8554700D02*
D03*
X7149900D02*
D03*
X7099900D02*
D03*
D14*
X6705300Y7196100D02*
D03*
Y7046100D02*
D03*
Y6496100D02*
D03*
Y6546100D02*
D03*
Y7246100D02*
D03*
Y7446100D02*
D03*
X8255300Y6396100D02*
D03*
Y6446100D02*
D03*
Y6596100D02*
D03*
Y6646100D02*
D03*
Y6696100D02*
D03*
Y6746100D02*
D03*
Y6796100D02*
D03*
Y6846100D02*
D03*
Y6896100D02*
D03*
Y6946100D02*
D03*
Y6996100D02*
D03*
Y7046100D02*
D03*
Y7096100D02*
D03*
Y7146100D02*
D03*
Y7196100D02*
D03*
Y7246100D02*
D03*
Y7296100D02*
D03*
Y7346100D02*
D03*
Y7396100D02*
D03*
X6705300Y7496100D02*
D03*
Y7396100D02*
D03*
Y7346100D02*
D03*
Y7296100D02*
D03*
Y7146100D02*
D03*
Y7096100D02*
D03*
Y6996100D02*
D03*
Y6946100D02*
D03*
Y6896100D02*
D03*
Y6846100D02*
D03*
Y6796100D02*
D03*
Y6746100D02*
D03*
Y6596100D02*
D03*
Y6446100D02*
D03*
Y6396100D02*
D03*
X8255300Y6496100D02*
D03*
Y6546100D02*
D03*
X6705300Y6296100D02*
D03*
X8255300Y6346100D02*
D03*
Y7496100D02*
D03*
X6705300Y6346100D02*
D03*
X8255300Y6296100D02*
D03*
Y7446100D02*
D03*
X6705300Y6646100D02*
D03*
Y6696100D02*
D03*
D15*
X7530300Y7671100D02*
D03*
X7830300D02*
D03*
X6880300Y6121100D02*
D03*
X6930300D02*
D03*
X6980300D02*
D03*
X7080300D02*
D03*
X7130300D02*
D03*
X7180300D02*
D03*
X7430300D02*
D03*
X7480300D02*
D03*
X7530300D02*
D03*
X7580300D02*
D03*
X7630300D02*
D03*
X7680300D02*
D03*
X7730300D02*
D03*
X8030300D02*
D03*
X8080300D02*
D03*
Y7671100D02*
D03*
X8030300D02*
D03*
X7980300D02*
D03*
X7930300D02*
D03*
X7880300D02*
D03*
X7780300D02*
D03*
X7730300D02*
D03*
X7680300D02*
D03*
X7630300D02*
D03*
X7580300D02*
D03*
X7380300D02*
D03*
X7330300D02*
D03*
X7280300D02*
D03*
X7230300D02*
D03*
X7180300D02*
D03*
X7130300D02*
D03*
X7080300D02*
D03*
X7030300D02*
D03*
X6980300D02*
D03*
X7880300Y6121100D02*
D03*
X7280300D02*
D03*
X7230300D02*
D03*
X7480300Y7671100D02*
D03*
X7980300Y6121100D02*
D03*
X7430300Y7671100D02*
D03*
X7930300Y6121100D02*
D03*
X7030300D02*
D03*
X6880300Y7671100D02*
D03*
X7830300Y6121100D02*
D03*
X7380300D02*
D03*
X7330300D02*
D03*
X7780300D02*
D03*
X6930300Y7671100D02*
D03*
D20*
X4451100Y8377299D02*
D03*
Y9151999D02*
D03*
X4356100Y8377299D02*
D03*
X4451100Y8107301D02*
D03*
X4356100D02*
D03*
X4261100D02*
D03*
Y8377299D02*
D03*
X4451100Y8882001D02*
D03*
X4356100D02*
D03*
X4261100D02*
D03*
Y9151999D02*
D03*
X4356100D02*
D03*
D27*
X4596300Y8356600D02*
D03*
X4776300Y9156700D02*
D03*
X4596300D02*
D03*
X4776300Y8356600D02*
D03*
D35*
X11264900Y5651500D02*
D03*
X11010900Y4889500D02*
D03*
X11264900Y5397500D02*
D03*
X11010900D02*
D03*
Y5905500D02*
D03*
Y6159500D02*
D03*
Y5651500D02*
D03*
X11264900Y5143500D02*
D03*
Y5905500D02*
D03*
Y6159500D02*
D03*
X11010900Y5143500D02*
D03*
D39*
X2717800Y7874000D02*
D03*
X8877300Y9474200D02*
D03*
X9436100D02*
D03*
X10452100D02*
D03*
X11518900D02*
D03*
X3759200Y5892800D02*
D03*
Y5638800D02*
D03*
Y5384800D02*
D03*
Y5130800D02*
D03*
X3505200D02*
D03*
Y5384800D02*
D03*
Y5638800D02*
D03*
X2717800Y8128000D02*
D03*
Y7620000D02*
D03*
Y7366000D02*
D03*
Y6858000D02*
D03*
Y6604000D02*
D03*
Y7112000D02*
D03*
D44*
X3505200Y5892800D02*
D03*
X2717800Y6350000D02*
D03*
D46*
X11264900Y4889500D02*
D03*
D47*
Y9474200D02*
D03*
X9690100D02*
D03*
X10706100D02*
D03*
X8623300D02*
D03*
D61*
X7327900Y8561400D02*
D03*
Y8661400D02*
D03*
X8559800Y6311100D02*
D03*
X7378700Y7862100D02*
D03*
X7099300Y5449100D02*
D03*
X6553200Y6503200D02*
D03*
Y6374600D02*
D03*
X7658100Y5220500D02*
D03*
X8051800Y5830100D02*
D03*
X7912100D02*
D03*
X8407400Y6211100D02*
D03*
X4114800Y8154200D02*
D03*
X3949700D02*
D03*
X6807200Y7924000D02*
D03*
X6932100Y7919440D02*
D03*
X4914900Y8990800D02*
D03*
X8420100Y9144800D02*
D03*
X9779000Y6515900D02*
D03*
X9931400D02*
D03*
X10071100D02*
D03*
X10223500Y6515900D02*
D03*
X10375900D02*
D03*
X9855200Y9144800D02*
D03*
X11557000Y8647900D02*
D03*
X10718800Y9181300D02*
D03*
X10566400D02*
D03*
X11557000Y9155900D02*
D03*
X11404600D02*
D03*
X4610100Y8190700D02*
D03*
X6146800Y6603200D02*
D03*
X6350000D02*
D03*
X7531100Y7961300D02*
D03*
X8432800Y6742900D02*
D03*
X10071100Y6615900D02*
D03*
X9931400D02*
D03*
X9779000D02*
D03*
X8559800Y6211100D02*
D03*
X8407400Y6311100D02*
D03*
X8394700Y5830100D02*
D03*
X8547100D02*
D03*
X7378700Y7962100D02*
D03*
X6807200Y7824000D02*
D03*
X6350000Y6503200D02*
D03*
X6553200Y6274600D02*
D03*
X6146800Y6503200D02*
D03*
X8394700Y5930100D02*
D03*
X8547100D02*
D03*
X7531100Y7861300D02*
D03*
X8432800Y6642900D02*
D03*
X4762500Y8990800D02*
D03*
X10223500Y6615900D02*
D03*
X10375900D02*
D03*
X9855200Y9244800D02*
D03*
X11557000Y9055900D02*
D03*
Y8547900D02*
D03*
X8420100Y9244800D02*
D03*
X9702800Y9244800D02*
D03*
Y9144800D02*
D03*
X11404600Y9055900D02*
D03*
Y8647900D02*
D03*
Y8547900D02*
D03*
X9550400Y9144800D02*
D03*
Y9244800D02*
D03*
X11252200Y9155900D02*
D03*
Y9055900D02*
D03*
X11557000Y8889200D02*
D03*
Y8789200D02*
D03*
X11404600Y8889200D02*
D03*
Y8789200D02*
D03*
X10718800Y9081300D02*
D03*
X10566400D02*
D03*
X8572500Y9244800D02*
D03*
Y9144800D02*
D03*
X10579100Y8940000D02*
D03*
Y8840000D02*
D03*
X10871200Y9181300D02*
D03*
Y9081300D02*
D03*
X8724900Y9144800D02*
D03*
Y9244800D02*
D03*
X8470900Y8520900D02*
D03*
Y8420900D02*
D03*
X10426700Y8940000D02*
D03*
Y8840000D02*
D03*
X6553200Y6603200D02*
D03*
X6932100Y7819440D02*
D03*
X5740400Y9005100D02*
D03*
X5537200Y8992400D02*
D03*
X7099300Y5549100D02*
D03*
X7658100Y5561800D02*
D03*
X8051800Y5930100D02*
D03*
X7912100D02*
D03*
X4762500Y8890800D02*
D03*
X5740400Y9105100D02*
D03*
X4610100Y8090700D02*
D03*
X7658100Y5320500D02*
D03*
Y5461800D02*
D03*
X3949700Y8254200D02*
D03*
X4610100Y8890800D02*
D03*
Y8990800D02*
D03*
X4914900Y8890800D02*
D03*
X5537200Y9092400D02*
D03*
X4114800Y8254200D02*
D03*
D62*
X9768900Y6860100D02*
D03*
X9898900D02*
D03*
X9833900Y7440100D02*
D03*
X10028900Y6860100D02*
D03*
X9833900D02*
D03*
X10288900Y7440100D02*
D03*
X10158900D02*
D03*
X10093900D02*
D03*
X9768900D02*
D03*
X9703900D02*
D03*
X9638900D02*
D03*
X9573900D02*
D03*
X10288900Y6860100D02*
D03*
X10223900D02*
D03*
X9963900D02*
D03*
X10028900Y7440100D02*
D03*
X9963900D02*
D03*
X10093900Y6860100D02*
D03*
X10158900D02*
D03*
X9638900D02*
D03*
X9573900D02*
D03*
X9703900D02*
D03*
X10223900Y7440100D02*
D03*
X9898900D02*
D03*
D63*
X7023900Y5956300D02*
D03*
X7265200D02*
D03*
X7682700Y5803900D02*
D03*
X3315500Y8267700D02*
D03*
X4368000Y7810500D02*
D03*
X4406100Y8521700D02*
D03*
X4368000Y9309100D02*
D03*
X7479500Y8851900D02*
D03*
X6044400Y9093200D02*
D03*
X6820700Y8864600D02*
D03*
X8508200Y7366000D02*
D03*
X9348000Y7124700D02*
D03*
X8508200Y7518400D02*
D03*
X9716300Y7696200D02*
D03*
X10095700D02*
D03*
X10514800Y7467600D02*
D03*
X10527500Y7315200D02*
D03*
X10375100Y7696200D02*
D03*
X9397200Y8420100D02*
D03*
X8965400Y8572500D02*
D03*
Y8420100D02*
D03*
X10110000Y8153400D02*
D03*
X8611400Y8724900D02*
D03*
X9856000Y8991600D02*
D03*
X10819600Y8407400D02*
D03*
Y8255000D02*
D03*
X10578300Y8534400D02*
D03*
X10527500Y7162800D02*
D03*
Y7010400D02*
D03*
X8408200Y7518400D02*
D03*
X7682700Y5956300D02*
D03*
X5944400Y9093200D02*
D03*
X4368000Y7962900D02*
D03*
X7365200Y5956300D02*
D03*
X6501600Y6057900D02*
D03*
X3415500Y8267700D02*
D03*
X9448000Y7124700D02*
D03*
X9816300Y7696200D02*
D03*
X6920700Y8864600D02*
D03*
X7379500Y8851900D02*
D03*
X10478300Y8382000D02*
D03*
X10414800Y7467600D02*
D03*
X10275100Y7696200D02*
D03*
X9995700D02*
D03*
X8724100Y8420100D02*
D03*
X9448000Y7277100D02*
D03*
X11291100Y8394700D02*
D03*
X10427500Y7162800D02*
D03*
X9638500Y8420100D02*
D03*
X10427500Y7010400D02*
D03*
X10427500Y7315200D02*
D03*
X9348000Y7277100D02*
D03*
X8711400Y8724900D02*
D03*
X9397200Y8572500D02*
D03*
X9297200D02*
D03*
X8865400D02*
D03*
X11391100Y8394700D02*
D03*
X10478300Y8534400D02*
D03*
X9638500Y8572500D02*
D03*
X9538500D02*
D03*
X9956000Y8991600D02*
D03*
X8624100Y8420100D02*
D03*
X10719600Y8255000D02*
D03*
X10110000Y8991600D02*
D03*
X10210000D02*
D03*
X8724100Y8572500D02*
D03*
X8624100D02*
D03*
X10478300Y8686800D02*
D03*
X10578300D02*
D03*
X10210000Y8153400D02*
D03*
X10578300Y8382000D02*
D03*
X8865400Y8420100D02*
D03*
X9297200D02*
D03*
X10719600Y8407400D02*
D03*
X9538500Y8420100D02*
D03*
X7582700Y5803900D02*
D03*
Y5956300D02*
D03*
X8408200Y7366000D02*
D03*
X7123900Y5956300D02*
D03*
X4268000Y7810500D02*
D03*
X4306100Y8521700D02*
D03*
X4268000Y7962900D02*
D03*
X6401600Y6057900D02*
D03*
X4268000Y9309100D02*
D03*
D64*
X7283700Y5269800D02*
D03*
X7473700Y5499800D02*
D03*
Y5269800D02*
D03*
X7283700Y5499800D02*
D03*
D65*
X3771900Y8091100D02*
D03*
X8216900Y5767000D02*
D03*
X3771900Y8241100D02*
D03*
X8216900Y5917000D02*
D03*
X3568700Y8091100D02*
D03*
Y8241100D02*
D03*
D66*
X4418400Y9474200D02*
D03*
X4431100Y8674100D02*
D03*
X4611300Y8534400D02*
D03*
Y9347200D02*
D03*
X4761300Y8534400D02*
D03*
X6414700Y5892800D02*
D03*
X6564700D02*
D03*
X4761300Y9347200D02*
D03*
X4281100Y8674100D02*
D03*
X4268400Y9474200D02*
D03*
D67*
X7470100Y9062200D02*
D03*
X6830100D02*
D03*
D68*
X9779000Y8115300D02*
D03*
X10464800Y8128000D02*
D03*
X9779000Y7886700D02*
D03*
X10464800Y7899400D02*
D03*
D69*
X9829800Y8310000D02*
D03*
X9956800D02*
D03*
X9829800Y8835000D02*
D03*
X10210800D02*
D03*
X10083800D02*
D03*
X10210800Y8310000D02*
D03*
X10083800D02*
D03*
X9956800Y8835000D02*
D03*
D70*
X9393800Y9105900D02*
D03*
X11260700Y8928100D02*
D03*
X9393800Y8724900D02*
D03*
Y8851900D02*
D03*
Y8978900D02*
D03*
X8868800Y8724900D02*
D03*
Y8851900D02*
D03*
Y8978900D02*
D03*
Y9105900D02*
D03*
X11260700Y8547100D02*
D03*
Y8674100D02*
D03*
Y8801100D02*
D03*
X10735700Y8547100D02*
D03*
Y8674100D02*
D03*
Y8801100D02*
D03*
Y8928100D02*
D03*
D71*
X10248900Y7899400D02*
D03*
X10020300D02*
D03*
D72*
X7390100Y9062200D02*
D03*
X6910100D02*
D03*
D73*
X7325100D02*
D03*
X7275100D02*
D03*
X6975100D02*
D03*
X7025100D02*
D03*
X7175100D02*
D03*
X7075100D02*
D03*
X7125100D02*
D03*
X7225100D02*
D03*
D74*
X12103100Y7112000D02*
D03*
X5791200Y3911600D02*
D03*
X12103100Y7734300D02*
D03*
Y7366000D02*
D03*
X7086600Y3911600D02*
D03*
X5537200D02*
D03*
X6299200D02*
D03*
X6045200D02*
D03*
X12103100Y6858000D02*
D03*
Y8242300D02*
D03*
Y7988300D02*
D03*
X7848600Y3911600D02*
D03*
X7594600D02*
D03*
X7340600D02*
D03*
D75*
X6553200D02*
D03*
X8102600D02*
D03*
D76*
X2794000Y4000500D02*
D03*
Y8953500D02*
D03*
X11988800Y4000500D02*
D03*
Y8953500D02*
D03*
D77*
X3225700Y8712200D02*
D03*
D78*
X3695700Y9012200D02*
D03*
D79*
X5340400Y9398000D02*
D03*
D80*
X12103100Y8496300D02*
D03*
Y6604000D02*
D03*
D81*
X5940400Y9398000D02*
D03*
X5540400D02*
D03*
X5740400D02*
D03*
D82*
X3695700Y8412200D02*
D03*
D83*
X6860100Y9187200D02*
D03*
X7440100D02*
D03*
D84*
X7582600Y9137200D02*
D03*
X6717600D02*
D03*
D85*
Y9557200D02*
D03*
X7582600D02*
D03*
D86*
X3378200Y7747000D02*
D03*
X4787900Y9055100D02*
D03*
X7620000Y7962900D02*
D03*
X7277100Y8826500D02*
D03*
X7480300Y8775700D02*
D03*
X8394700Y5930900D02*
D03*
X8547100D02*
D03*
X8955900Y6386400D02*
D03*
X9042400Y6197600D02*
D03*
X8610600Y6376600D02*
D03*
X7893537Y6344606D02*
D03*
X7277100Y7937500D02*
D03*
X6731000Y5854700D02*
D03*
X11078024Y6582224D02*
D03*
X8128000Y6553200D02*
D03*
X8144700Y6646100D02*
D03*
X7000000Y9500000D02*
D03*
X11000000D02*
D03*
X3500000D02*
D03*
X6500000D02*
D03*
X10000000D02*
D03*
X12000000D02*
D03*
X8000000D02*
D03*
X7275028Y5023172D02*
D03*
X11250000Y7500000D02*
D03*
X10250000Y5250000D02*
D03*
X9750000D02*
D03*
Y5750000D02*
D03*
X9250000Y5500000D02*
D03*
X2750000Y8500000D02*
D03*
X3746500Y7747000D02*
D03*
X3000000Y7750000D02*
D03*
X4000000D02*
D03*
Y8000000D02*
D03*
X6000000Y8750000D02*
D03*
X6500000Y8250000D02*
D03*
X6250000Y8000000D02*
D03*
X5500000D02*
D03*
X4750000D02*
D03*
Y7500000D02*
D03*
X5500000D02*
D03*
X6250000D02*
D03*
X4750000Y5250000D02*
D03*
X6000000Y6000000D02*
D03*
Y5500000D02*
D03*
X5250000D02*
D03*
X4750000Y5750000D02*
D03*
X4250000Y5500000D02*
D03*
Y6000000D02*
D03*
X10159200Y7759700D02*
D03*
X10441300Y7708900D02*
D03*
X8648700Y8318500D02*
D03*
X3175000Y3784600D02*
D03*
X4178300D02*
D03*
X5308600D02*
D03*
X8636000D02*
D03*
X9956800Y3771900D02*
D03*
X11341100Y3759200D02*
D03*
X12204700Y4584700D02*
D03*
X12217400Y9347200D02*
D03*
X9146319Y8026766D02*
D03*
X9222421Y8000832D02*
D03*
X9469240Y7582735D02*
D03*
X9412389Y7639587D02*
D03*
X9355537Y7696438D02*
D03*
X8991496Y7998419D02*
D03*
X8934645Y8055270D02*
D03*
X11269110Y8218425D02*
D03*
X11155407Y8104722D02*
D03*
X10928002Y7877317D02*
D03*
X10814299Y7763614D02*
D03*
X10700597Y7649912D02*
D03*
X10586894Y7536209D02*
D03*
X10677794Y7810279D02*
D03*
X10791496Y7923981D02*
D03*
X10962050Y8094535D02*
D03*
X11075753Y8208238D02*
D03*
X11189455Y8321940D02*
D03*
X11237581Y8474671D02*
D03*
X10601573Y8262916D02*
D03*
X10430469Y8251861D02*
D03*
X10401159Y8326728D02*
D03*
X10393746Y8406786D02*
D03*
X9722934Y8448205D02*
D03*
X9717309Y8368002D02*
D03*
X9653260Y8319403D02*
D03*
X9699822Y7610659D02*
D03*
X9523740Y7991144D02*
D03*
Y8312743D02*
D03*
X8280400Y9613900D02*
D03*
X10185400D02*
D03*
Y9474200D02*
D03*
Y9321800D02*
D03*
X7906072Y5628480D02*
D03*
Y5467680D02*
D03*
Y5306881D02*
D03*
Y5146081D02*
D03*
X7704873Y4901479D02*
D03*
X7385466Y4882828D02*
D03*
X7224667D02*
D03*
X7063867D02*
D03*
X6903067D02*
D03*
X6742267D02*
D03*
X6581467D02*
D03*
X6420668D02*
D03*
X6179468D02*
D03*
X5857868D02*
D03*
X5616669D02*
D03*
X5455869D02*
D03*
X5295069D02*
D03*
X5134269D02*
D03*
X4973470D02*
D03*
X4812670D02*
D03*
X4651870D02*
D03*
X4491070D02*
D03*
X4330270D02*
D03*
X4169471D02*
D03*
X4008671D02*
D03*
X3861477Y4929284D02*
D03*
X3705095Y5251737D02*
D03*
X3855272Y5221993D02*
D03*
X3915846Y5073392D02*
D03*
X5345431Y5023172D02*
D03*
X5506231D02*
D03*
X5667031D02*
D03*
X5988630D02*
D03*
X6229830D02*
D03*
X6471029D02*
D03*
X6631829D02*
D03*
X6792629D02*
D03*
X6953429D02*
D03*
X7114229D02*
D03*
X7667324Y5061463D02*
D03*
X7765728Y5187144D02*
D03*
Y5347944D02*
D03*
Y5508743D02*
D03*
Y5669543D02*
D03*
Y5830343D02*
D03*
X6845300Y5588000D02*
D03*
X6807200Y5740400D02*
D03*
X10591800Y7162800D02*
D03*
Y7010400D02*
D03*
X8509000Y6731000D02*
D03*
X8407400Y7581900D02*
D03*
X7454900Y7961700D02*
D03*
X9715500Y6616700D02*
D03*
X8407400Y6375400D02*
D03*
X8636000Y6210300D02*
D03*
X8597900Y5779300D02*
D03*
X7823200Y6261100D02*
D03*
X8394700Y5765800D02*
D03*
X8216900Y5676900D02*
D03*
X7734300Y5956300D02*
D03*
X6794500Y7759700D02*
D03*
X5880100Y9067800D02*
D03*
X4864100Y8445500D02*
D03*
X4762500D02*
D03*
X4445000Y7988300D02*
D03*
X4521200Y7937500D02*
D03*
X7086600Y6362700D02*
D03*
X7365200Y5893600D02*
D03*
X6146800Y6426200D02*
D03*
X6540500Y6210300D02*
D03*
X6502400Y6121400D02*
D03*
X7696200Y6235700D02*
D03*
X7624246Y6341700D02*
D03*
X7912100Y6235700D02*
D03*
X7238611Y7845559D02*
D03*
X7330300Y7770000D02*
D03*
X7543800Y6248400D02*
D03*
X6832600Y6743700D02*
D03*
X8128000Y6832600D02*
D03*
X9398000D02*
D03*
X8115300Y7264400D02*
D03*
X8109426Y7383830D02*
D03*
X10156090Y6668521D02*
D03*
X10093900Y6746300D02*
D03*
X9245600Y7277100D02*
D03*
X8470900Y8585200D02*
D03*
X9779000Y7874000D02*
D03*
X4737100Y9334500D02*
D03*
X4851400Y9258300D02*
D03*
Y9385300D02*
D03*
X7734300Y7518400D02*
D03*
X8559800Y6972300D02*
D03*
X6858000Y7340600D02*
D03*
X7950200Y6781800D02*
D03*
X8026400Y6870700D02*
D03*
X8128000Y6946900D02*
D03*
Y6731000D02*
D03*
X10210800Y9055100D02*
D03*
X10673800Y8204200D02*
D03*
X10325100Y8915400D02*
D03*
X11557000Y8953500D02*
D03*
X8864600Y8331200D02*
D03*
X10274300Y8153400D02*
D03*
X3987800Y8407400D02*
D03*
X3886200Y8572500D02*
D03*
X3759200Y8686800D02*
D03*
Y8839200D02*
D03*
X3937000Y8928100D02*
D03*
X3886200Y9169400D02*
D03*
X3733800Y9245600D02*
D03*
X3746500Y9436100D02*
D03*
X3759200Y9613900D02*
D03*
X4102100D02*
D03*
X4292600D02*
D03*
%TF.MD5,40cfc7757da20b08f76d0293652f3743*%
M02*
